<?xml version="1.0" standalone="no"?>
<!DOCTYPE svg PUBLIC "-//W3C//DTD SVG 1.1//EN" "http://www.w3.org/Graphics/SVG/1.1/DTD/svg11.dtd" >
<svg xmlns="http://www.w3.org/2000/svg">
<metadata>Generated by IcoMoon</metadata>
<defs>
<font id="VX" horiz-adv-x="1024">
<font-face units-per-em="1024" ascent="896" descent="-128" />
<missing-glyph horiz-adv-x="1024" />
<glyph unicode="&#x20;" horiz-adv-x="0" d="" />
<glyph unicode="&#x78;" glyph-name="x" horiz-adv-x="1001" d="M281 543q-27-1-53-1h-83q-18 0-36.5-6t-32.5-18.5-23-32-9-45.5v-76h912v41q0 16-0.5 30t-0.5 18q0 13-5 29t-17 29.5-31.5 22.5-49.5 9h-133v-97h-438v97zM955 310v-52q0-23 0.5-52t0.5-58-10.5-47.5-26-30-33-16-31.5-4.5q-14-1-29.5-0.5t-29.5 0.5h-32l-45 128h-439l-44-128h-63q-20 0-45 1-25 0-41 9.5t-25.5 23-13.5 29.5-4 30v167h911zM163 247q-12 0-21-8.5t-9-21.5 9-21.5 21-8.5q13 0 22 8.5t9 21.5-9 21.5-22 8.5zM316 123q-8-26-14-48-5-19-10.5-37t-7.5-25-3-15 1-14.5 9.5-10.5 21.5-4h365q23 0 34 12t2 38q-5 13-9.5 30.5t-9.5 34.5q-5 19-11 39h-368zM336 498v228q0 11 2.5 23t10 21.5 20.5 15.5 34 6h188q31 0 51.5-14.5t20.5-52.5v-227h-327z" />
<glyph unicode="&#xe600;" glyph-name="uniE600" d="M488 134q18-8 39-5t35 16l445 403q18 16 17 38.5t-20 38.5-45.5 15-44.5-17l-399-362-405 360q-19 17-45 17.5t-45-15.5q-20-16-20-40 0-22 18-38l449-399h1l2-2t2-1q2-2 12-7l2-2h2z" />
<glyph unicode="&#xe601;" glyph-name="uniE601" d="M262 360q-8 18-5 39t16 35l403 445q16 18 38.5 17t38.5-20 15-45.5-17-44.5l-362-399 360-405q17-19 17.5-45t-15.5-45q-16-20-40-20-22 0-38 18l-399 449v1l-2 2t-1 2q-2 2-7 12l-2 2v2z" />
<glyph unicode="&#xe602;" glyph-name="uniE602" d="M762 360q8 18 5 39t-16 35l-403 445q-16 18-38.5 17t-38.5-20-15-45.5 17-44.5l362-399-360-405q-17-19-17.5-45t15.5-45q16-20 40-20 22 0 38 18l399 449v1l2 2t1 2q2 2 7 12l2 2v2z" />
<glyph unicode="&#xe603;" glyph-name="uniE603" d="M536 634q-18 8-39 5t-35-16l-445-403q-18-16-17-38.5t20-38.5 45.5-15 44.5 17l399 362 405-360q19-17 45-17.5t45 15.5q20 16 20 40 0 22-18 38l-449 399h-1l-2 2t-2 1q-2 2-12 7l-2 2h-2z" />
<glyph unicode="&#xe604;" glyph-name="uniE604" horiz-adv-x="1025" d="M410 177q28-28 67.5-27.5t67.5 27.5l367 357q55 53 39.5 91t-92.5 38h-763q-77 0-92.5-38t39.5-91z" />
<glyph unicode="&#xe605;" glyph-name="uniE605" d="M294 293q-27 27-27 67t27 67l357 367q54 55 92 39.5t38-92.5v-763q0-77-38-92.5t-92 39.5l-357 367v1z" />
<glyph unicode="&#xe606;" glyph-name="uniE606" d="M754 293q27 27 27 67t-27 67l-358 367q-53 55-91 39.5t-38-92.5v-763q0-77 38-92.5t91 39.5l358 367v1z" />
<glyph unicode="&#xe607;" glyph-name="uniE607" horiz-adv-x="1025" d="M410 636q28 27 67.5 27t67.5-27l367-357q55-54 39.5-91.5t-92.5-37.5h-763q-77 0-92.5 37.5t39.5 91.5z" />
<glyph unicode="&#xe608;" glyph-name="uniE608" horiz-adv-x="1376" d="M548-17q-40 0-68 28l-389 389q-29 29-29 69t28.5 68.5 69 28.5 68.5-28l320-320 612 612q29 28 69 28t68.5-28.5 28.5-68.5-28-69l-681-681q-28-28-69-28v0z" />
<glyph unicode="&#xe609;" glyph-name="uniE609" d="M512 896q-106 0-199.5-40t-163-109.5-109.5-163-40-199.5 40-199.5 109.5-163 163-109.5 199.5-40 199.5 40 163 109.5 109.5 163 40 199.5-40 199.5-109.5 163-163 109.5-199.5 40zM798 497l-373-373q-8-7-17.5-7t-17.5 7l-7 8-206 206q-7 8-7 18t7 17l51 50q7 8 17 8t17-8l145-146 306 305q7 8 17 8t17-8l50-50q8-8 8-17.5t-8-17.5h1z" />
<glyph unicode="&#xe60a;" glyph-name="uniE60A" d="M522 429l202 202q11 11 26 11t26-11q11-10 11-25.5t-11-26.5l-202-202 202-202q11-11 10.5-26t-10.5-26q-11-10-26-10t-26 10l-202 203-202-203q-11-10-26.5-10t-25.5 10q-11 11-11 26t11 26l202 202-202 202q-11 11-10.5 26.5t10.5 25.5q11 11 26 11t26-11zM512-128q139 0 257 68.5t186.5 186.5 68.5 257-68.5 257-186.5 186.5-257 68.5-257-68.5-186.5-186.5-68.5-257 68.5-257 186.5-186.5 257-68.5z" />
<glyph unicode="&#xe60b;" glyph-name="uniE60B" d="M512-128q-106 0-199.5 40t-163 109.5-109.5 163-40 199.5 40 199.5 109.5 163 163 109.5 199.5 40 199.5-40 163-109.5 109.5-163 40-199.5-40-199.5-109.5-163-163-109.5-199.5-40zM747 533q7 7 7 17.5t-7 18.5l-53 51q-7 8-17 8t-17-8l-148-147-149 147q-7 8-17 8t-17-8l-53-51q-6-8-6-18.5t6-17.5l149-148-149-147q-6-8-6-18.5t6-17.5l53-52q7-7 17-7t17 7l149 148 148-148q7-7 17-7t17 7l53 52q7 7 7 17.5t-7 18.5l-149 147z" />
<glyph unicode="&#xe60c;" glyph-name="uniE60C" d="M512 484l-391 391q-21 21-50.5 21t-49.5-21q-20-20-20.5-49.5t20.5-50.5l391-391-391-391q-21-21-21-50.5t21-49.5q20-21 49.5-21t50.5 21l391 391 391-391q21-21 50.5-21t49.5 21q21 20 21 49.5t-21 50.5l-391 391 391 391q21 21 21 50.5t-21 49.5q-20 20-49.5 20.5t-50.5-20.5z" />
<glyph unicode="&#xe60d;" glyph-name="uniE60D" d="M566 0h213q102 3 173.5 77t71.5 176q0 105-74 179.5t-178 74.5h-8v8q0 105-73.5 179t-178 74-178.5-74-74-179v-8h-8q-104 0-178-74.5t-74-179.5q0-102 71.5-176t173.5-77h229v172h-90q-20 0-26 11t5 27l140 214q7 10 16.5 10t16.5-10l141-214q10-16 4-27t-25-11h-90v-172z" />
<glyph unicode="&#xe60e;" glyph-name="uniE60E" horiz-adv-x="1025" d="M6 360q-8 18-5 39t16 35l403 445q16 18 38.5 17t38.5-20 15-45.5-17-44.5l-362-399 360-405q17-19 17.5-45t-15.5-45q-16-20-40-20-22 0-38 18l-399 449v1l-2 2t-1 2q-2 2-7 12l-2 2v2zM518 360q-8 18-5 39t16 35l403 445q16 18 38.5 17t38.5-20 15-45.5-17-44.5l-362-399 360-405q17-19 17.5-45t-15.5-45q-16-20-40-20-22 0-38 18l-399 449v1l-2 2t-1 2q-2 2-7 12l-2 2v2z" />
<glyph unicode="&#xe60f;" glyph-name="uniE60F" horiz-adv-x="1025" d="M1018 360q8 18 5.5 39t-16.5 35l-403 445q-16 18-38.5 17t-38.5-20-15-45.5 17-44.5l362-399-360-405q-17-19-17.5-45t15.5-45q16-20 40-20 22 0 38 18l399 449v1l4 4 6 12 2 2v2zM506 360q8 18 5.5 39t-16.5 35l-403 445q-16 18-38.5 17t-38.5-20-15-45.5 17-44.5l362-399-360-405q-17-19-17.5-45t15.5-45q16-20 40-20 22 0 38 18l399 449v1l2 2t1 2q2 2 7 12l2 2v2z" />
<glyph unicode="&#xe610;" glyph-name="uniE610" d="M440-99q26-24 62-24t62 24l300 284q52 48 38.5 82t-83.5 34h-634q-70 0-83.5-34t37.5-82zM440 872q26 24 62 24t62-24l300-283q52-49 38.5-83t-83.5-34h-634q-70 0-83.5 34t37.5 83z" />
<glyph unicode="&#xe611;" glyph-name="uniE611" d="M713 782h-402v114h-151v-114h-50q-28 0-47.5-19.5t-19.5-47.5v-776q0-28 19-47.5t47-19.5h806q28 0 47 19.5t19 47.5v776q0 28-19.5 47.5t-46.5 19.5h-51v114h-151v-114zM160-18v573h704v-573h-704zM555 299v-256h256v256h-256z" />
<glyph unicode="&#xe612;" glyph-name="uniE612" d="M642 706v126q0 27-16.5 45.5t-40.5 18.5h-136q-25 0-45.5-19t-20.5-45v-126h-204q0-1-2-2-49-22-49-64 0-26 17.5-45t41.5-19h650q24 0 41.5 19t17.5 45q0 24-15 40.5t-29 21.5l-15 4h-195zM448 704v64q0 32 18 48t46 16q29 0 46.5-16t17.5-48v-64h-128zM320-128h384q53 0 90.5 37.5t37.5 90.5v512h-640v-512q0-53 37.5-90.5t90.5-37.5zM644 356q0 11 7.5 19.5t18.5 8.5 19-8.5 8-19.5v-342q0-12-8-20t-19-8-18.5 8-7.5 20v342zM486 356q0 11 7.5 19.5t18.5 8.5 18.5-8.5 7.5-19.5v-342q0-12-7.5-20t-18.5-8-18.5 8-7.5 20v342zM328 356q0 11 7.5 19.5t18.5 8.5 18.5-8.5 7.5-19.5v-342q0-12-7.5-20t-18.5-8-18.5 8-7.5 20v342z" />
<glyph unicode="&#xe613;" glyph-name="uniE613" d="M441 896l-356-366v-519q0-57 41-98t99-41h574q58 0 99 41t41 98v746q0 57-41 98t-99 41h-358zM832 53q0-29-21-50t-50-21h-498q-30 0-50.5 20.5t-20.5 50.5v404h249q29 0 50 21t21 51v257h249q29 0 50-21t21-50v-662z" />
<glyph unicode="&#xe614;" glyph-name="uniE614" d="M84 180l-84-308 307 85 485 485-226 219zM755 850l-121-121 227-219 117 117q46 46 46 111.5t-46 111.5-111.5 46-111.5-46z" />
<glyph unicode="&#xe615;" glyph-name="uniE615" d="M512-128q-106 0-199.5 40t-163 109.5-109.5 163-40 199.5 40 199.5 109.5 163 163 109.5 199.5 40 199.5-40 163-109.5 109.5-163 40-199.5-40-199.5-109.5-163-163-109.5-199.5-40zM512 677q-31 0-52-21.5t-21-52 21.5-52 52-21.5 51.5 21.5 21 52-21.5 52-51.5 21.5zM571 401q0 23-17 39.5t-42 16.5-42-16.5-17-39.5v-261q0-24 17-40t42-16 42 16 17 40v261z" />
<glyph unicode="&#xe616;" glyph-name="uniE616" d="M0 384q0-139 68.5-257t186.5-186.5 257-68.5 257 68.5 186.5 186.5 68.5 257-68.5 257-186.5 186.5-257 68.5q-16 0-27.5-11.5t-11.5-28 11.5-28 27.5-11.5q118 0 217.5-58t157.5-157.5 58-217.5-58-217.5-157.5-157.5-217.5-58-217.5 58-157.5 157.5-58 217.5q0 16-11.5 27.5t-28 11.5-28-11.5-11.5-27.5z" />
<glyph unicode="&#xe617;" glyph-name="uniE617" d="M358 347h-244q-47 0-80.5-33.5t-33.5-80.5v-245q0-48 33.5-82t80.5-34h244q48 0 81 33.5t33 80.5v244q2 49-31.5 83t-82.5 34zM358 896h-244q-47 0-80.5-33.5t-33.5-80.5v-244q0-48 33.5-81t80.5-33h244q48 0 81 33t33 81v244q2 47-31.5 80.5t-82.5 33.5zM910 347h-244q-48 0-81-33.5t-33-80.5v-245q0-47 33-80.5t81-33.5h244q47 0 80.5 33.5t33.5 80.5v242q0 49-33.5 83t-80.5 34zM910 896h-244q-48 0-81-33.5t-33-80.5v-244q0-48 33-81t81-33h244q47 0 80.5 33t33.5 81v244q0 47-33.5 80.5t-80.5 33.5z" />
<glyph unicode="&#xe618;" glyph-name="uniE618" d="M896 811h-768q-41 0-84.5-29t-43.5-65v-18q18-15 47.5-40t108.5-89 143.5-113 127.5-89 85-40 85 39.5 127.5 88.5 143.5 112.5 108.5 89 47.5 40.5v19q0 36-43.5 65t-84.5 29v0zM0 549v-526q2-3 5.5-7.5t16-15.5 26.5-20 35.5-16 44.5-7h768q21 0 42.5 7t36 16.5 26 19 17.5 16.5l6 7v528q-15-14-40.5-36.5t-96-80-132.5-101.5-132-80-111-36-109 34.5-135.5 83-129 97.5-100.5 83l-38 34z" />
<glyph unicode="&#xe619;" glyph-name="uniE619" d="M79 463h866q33 0 56-23t23-56-23-56-56-23h-866q-33 0-56 23t-23 56 23 56 56 23z" />
<glyph unicode="&#xe61a;" glyph-name="uniE61A" d="M118 266q49 0 83.5 34.5t34.5 83.5-34.5 83.5-83.5 34.5-83.5-34.5-34.5-83.5 34.5-83.5 83.5-34.5zM512 266q49 0 83.5 34.5t34.5 83.5-34.5 83.5-83.5 34.5-83.5-34.5-34.5-83.5 34.5-83.5 83.5-34.5zM906 266q49 0 83.5 34.5t34.5 83.5-34.5 83.5-83.5 34.5-83.5-34.5-34.5-83.5 34.5-83.5 83.5-34.5z" />
<glyph unicode="&#xe61b;" glyph-name="uniE61B" d="M147 811q-61 0-104-43t-43-104v-560q0-61 43-104t104-43h730q61 0 104 43t43 104v560q0 61-43 104t-104 43h-730zM743 431q-1 2-4 6t-16.5 10-32.5 6q-20 0-35-5.5t-20-10.5l-5-5-176-279q-10-19-33-19-11 0-20 5t-13 9l-3 5-93 109q-2 3-7 8.5t-19.5 14.5-28 9-27.5-9-21-18l-7-9-72-87v460q0 30 21 51.5t52 21.5h659q30 0 51-21.5t21-51.5v-425zM475 491q0-45-32-76t-77.5-31-77.5 31.5-32 75.5 32 75 77.5 31 77.5-31 32-75v0z" />
<glyph unicode="&#xe61c;" glyph-name="uniE61C" d="M439 457h-365q-31 0-52.5-21.5t-21.5-51.5 21.5-51.5 52.5-21.5h365v-365q0-31 21.5-52.5t51.5-21.5 51.5 21.5 21.5 52.5v365h365q31 0 52.5 21.5t21.5 51.5-21.5 51.5-52.5 21.5h-365v365q0 31-21.5 52.5t-51.5 21.5-51.5-21.5-21.5-52.5v-365z" />
<glyph unicode="&#xe61d;" glyph-name="uniE61D" d="M591 274q75 75 75 181t-75 181-181 75-181-75-75-181 75-181 181-75 181 75zM650 155q-75-60-167.5-78t-184 9.5-159.5 96.5q-74 74-100 173t0 197.5 99.5 172.5 172.5 100 198 0 173-100q96-96 110-230.5t-57-245.5l203-202q19-19 19-45.5t-19-45.5q-18-19-44.5-19t-46.5 19z" />
<glyph unicode="&#xe61e;" glyph-name="uniE61E" horiz-adv-x="1025" d="M1020 454q-3 16-17 30.5t-31 18.5l-16 3q-63 19-96 75t-18 119l5 15q5 16-0.5 35.5t-18.5 30.5q-16 13-60 38-19 11-35 18.5t-22 10.5l-6 2q-16 6-35.5 1.5t-31.5-17.5l-12-12q-47-44-113.5-44t-114.5 44l-11 12q-12 13-31.5 17.5t-35.5-1.5q-20-7-64-31-19-12-34-21.5t-20-13.5l-5-4q-13-10-19-29t-1-36l5-15q15-63-18-119-33-57-96-75l-16-3q-17-4-31-18.5t-17-30.5q-4-20-4-70 0-22 1-39.5t2-23.5l1-7q3-16 17-30.5t31-18.5l15-3q64-19 97-75t18-119l-5-15q-5-16 1-35.5t19-30.5q15-13 59-38 20-11 36-18.5t22-10.5l6-2q16-6 35.5-1.5t31.5 17.5l11 11q48 45 114 45 67 0 115-45l11-11q11-13 31-17.5t36 1.5q19 7 63 31 20 11 35 21t20 14l5 3q13 11 18.5 30t0.5 35l-4 16q-16 63 17 119t97 75l16 3q16 4 30 18.5t18 30.5q3 20 3 70 0 22-1 39.5t-2 23.5l-1 7zM512 184q-84 0-144 58.5t-60 141.5 60 141.5 144.5 58.5 144-58.5 59.5-141.5-59.5-141.5-144.5-58.5v0z" />
<glyph unicode="&#xe61f;" glyph-name="uniE61F" d="M877 159q27-11 47.5-31.5t32-47.5 11.5-58.5-11.5-58.5-32-47.5-47.5-32-58-11.5-58 11.5-47.5 32-32 47.5-11.5 58v9q0 5 2 8v9q1 5 2 8l-365 213q-11-9-22-17t-25-13q-13-6-27-8-14-3-30-3-31 0-59.5 12.5t-48.5 32.5q-22 22-34 49.5t-12 60.5q0 31 12 59.5t34 48.5q20 22 48.5 34t59.5 12q15 0 30-3 14-3 27-9 14-5 25-13t22-17l361 212q-1 3-1 8-1 5-2 9 0 5-0.5 9.5t-0.5 9.5q0 31 12 59.5t33 48.5q21 21 49 33.5t59 12.5 59.5-12.5 48.5-33.5q22-20 34-48.5t12-59.5q0-33-12-61t-34-49q-20-20-48.5-32t-59.5-12q-15 0-29.5 2t-27.5 9q-14 4-25 12t-22 18l-361-211q1-5 1.5-9.5t1.5-8.5q0-5 0.5-9t0.5-9-0.5-10-0.5-10q-1-3-2-8 0-4-1-8l364-214q10 9 22 16t24 13q13 5 27 7 14 3 28 3 31 0 58-12z" />
<glyph unicode="&#xe620;" glyph-name="uniE620" horiz-adv-x="1086" d="M825-58q15-9 25-10-3 0-8.5-4t-6.5-7q2 9-2 27l-52 226q-9 40 5 82.5t45 68.5l176 154q14 12 18 20-1-3 1-10t5-8q-8 4-27 6l-235 22q-40 3-76 29.5t-52 62.5l-93 213q-7 17-14 24 2-2 9-2t8 2q-7-7-14-24l-93-213q-16-36-52-62.5t-76-29.5l-235-22q-19-2-27-6 3 1 5 8.5t1 9.5q4-8 18-20l177-154q30-26 44-68.5t5-82.5l-51-226q-4-18-3-27 0 3-6 7t-8 4q9 1 25 10l202 119q35 21 80 21t79-21zM493 10l-202-119q-54-32-82.5-11t-14.5 82l52 226q5 23-4 50t-27 42l-177 154q-47 41-36 74t73 39l236 21q23 2 46 19t32 38l93 213q25 58 60.5 58t60.5-58l93-213q9-21 32-38t46-19l236-21q62-6 73-39t-36-74l-177-154q-18-15-27-42t-4-50l52-226q14-61-14.5-82t-82.5 11l-202 119q-21 12-49.5 12t-49.5-12z" />
<glyph unicode="&#xe621;" glyph-name="uniE621" horiz-adv-x="1086" d="M592 10q-21 12-49.5 12t-49.5-12l-202-119q-54-32-82.5-11t-14.5 82l52 226q5 23-4 50t-27 42l-177 154q-47 41-36 74t73 39l236 21q23 2 46 19t32 38l93 213q25 58 60.5 58t60.5-58l93-213q9-21 32-38t46-19l236-21q62-6 73-39t-36-74l-177-154q-18-15-27-42t-4-50l52-226q14-61-14.5-82t-82.5 11z" />
<glyph unicode="&#xe622;" glyph-name="uniE622" d="M512-128q-139 0-257 68.5t-186.5 186.5-68.5 257q0 104 40.5 199t109 163.5 163.5 109 199 40.5 199-40.5 163.5-109 109-163.5 40.5-199-40.5-199-109-163.5-163.5-109-199-40.5zM512 786q-109 0-202-53.5t-146.5-146.5-53.5-202 53.5-202 146.5-146.5 202-53.5 202 53.5 146.5 146.5 53.5 202-53.5 202-146.5 146.5-202 53.5zM513 316q-20 0-34 14.5t-14 33.5v229q0 19 14 33.5t34 14.5 34-14.5 14-33.5v-181h160q20 0 34-14t14-33.5-14-34-34-14.5h-208z" />
<glyph unicode="&#xe623;" glyph-name="uniE623" d="M512 896q-106 0-199.5-40t-163-109.5-109.5-163-40-199.5 40-199.5 109.5-163 163-109.5 199.5-40 199.5 40 163 109.5 109.5 163 40 199.5-40 199.5-109.5 163-163 109.5-199.5 40zM512 94q-25 0-42 17t-17 41.5 17 42 42 17.5 42-17.5 17-42-17-41.5-42-17zM571 350q0-25-17-42.5t-42-17.5-42 17.5-17 42.5v275q0 25 17 42t42 17 42-17 17-42v-275z" />
<glyph unicode="&#xe624;" glyph-name="uniE624" d="M382 491v-384q0-10-6-16t-15-6h-43q-10 0-16 6t-6 16v384q0 9 6 15t16 6h43q9 0 15-6t6-15zM555 491v-384q0-10-6-16t-15-6h-44q-9 0-15 6t-6 16v384q0 9 6 15t15 6h44q9 0 15-6t6-15zM728 491v-384q0-10-6-16t-16-6h-43q-9 0-15 6t-6 16v384q0 9 6 15t15 6h43q10 0 16-6t6-15zM815 8v632h-606v-632q0-15 5-27t10-18 7-6h562q2 0 7 6t10 18 5 27zM361 725h302l-32 78q-5 6-12 8h-214q-6-2-11-8zM987 704v-43q0-9-6-15t-15-6h-65v-632q0-55-31.5-95.5t-76.5-40.5h-562q-45 0-76.5 39t-31.5 94v635h-65q-9 0-15 6t-6 15v43q0 9 6 15t15 6h209l47 112q10 24 36.5 41.5t53.5 17.5h216q27 0 53.5-17.5t36.5-41.5l47-112h209q9 0 15-6t6-15z" />
<glyph unicode="&#xe626;" glyph-name="uniE626" d="M634 506h-146v147q0 20-14.5 34t-34.5 14-34.5-14-14.5-34v-147h-146q-20 0-34-14t-14-34.5 14-34.5 34-14h146v-147q0-20 14.5-34t34.5-14 34.5 14 14.5 34v147h146q20 0 34.5 14t14.5 34.5-14.5 34.5-34.5 14zM1009-41l-226 227q67 85 86.5 190.5t-12 209-109.5 181.5q-63 64-145 96.5t-165 32.5-165-32.5-145-96-95.5-145.5-32.5-165 32.5-165 95.5-145q79-78 182.5-109.5t209.5-11.5 191 87l226-226q15-15 36-15t36 15 15 36-15 36zM679 217q-65-66-153-89t-176 0-153.5 89-88.5 153.5 0 175.5 88.5 153.5 153.5 89 176 0 153.5-89 88.5-153.5 0-175.5-89-153.5z" />
<glyph unicode="&#xe627;" glyph-name="uniE627" horiz-adv-x="1103" d="M1039-128h-975q-27 0-45.5 19t-18.5 45v320q0 27 18.5 45.5t45 18.5 45-18.5 18.5-45.5v-256h849v256q0 27 18.5 45.5t44.5 18.5 45-18.5 19-45.5v-320q0-26-18.5-45t-45.5-19zM742 555q-28 0-47 21l-80 89v-388q0-26-18.5-45t-45-19-45 19-18.5 45v388l-80-89q-19-21-47-21-27 0-45.5 18.5t-18.5 45.5q0 24 16 42l191 214q19 21 47.5 21t47.5-21l191-214q16-18 16-42 0-27-18.5-45.5t-45.5-18.5z" />
<glyph unicode="&#xe900;" glyph-name="other-delete3" d="M385.291 574.065l-63.356-63.356 126.709-126.709-126.709-126.709 63.356-63.356 126.709 126.709 126.709-126.709 63.356 63.356-126.709 126.709 126.709 126.709-63.356 63.356-126.709-126.709-126.709 126.709zM512 831.988c-247.289 0-447.988-200.698-447.988-447.988s200.698-447.988 447.988-447.988c247.289 0 447.988 200.698 447.988 447.988s-200.698 447.988-447.988 447.988v0zM512 25.61c-197.562 0-358.39 160.828-358.39 358.39s160.828 358.39 358.39 358.39c197.562 0 358.39-160.828 358.39-358.39s-160.828-358.39-358.39-358.39v0z" />
<glyph unicode="&#xe901;" glyph-name="xiala5" horiz-adv-x="1489" d="M228.278 802.381h-129.698l645.921-513.801 645.921 513.801h-129.698l-516.223-410.632-516.223 410.632zM1260.723 479.421h129.698l-645.921-513.801-645.921 513.801h129.698l516.223-410.632 516.223 410.632z" />
<glyph unicode="&#xe902;" glyph-name="yingyong" d="M145.463 750.537h257.934v-257.934h-257.934v257.934zM64.010 757.481v-271.82c0-41.607 33.27-74.509 74.509-74.509h271.82c41.607 0 74.509 33.27 74.509 74.509v271.82c0 41.607-33.27 74.509-74.509 74.509h-271.82c-41.607 0-74.509-33.27-74.509-74.509zM145.463 275.397h257.934v-257.934h-257.934v257.934zM64.010 282.341v-271.82c0-41.607 33.27-74.509 74.509-74.509h271.82c41.607 0 74.509 33.27 74.509 74.509v271.82c0 41.607-33.27 74.509-74.509 74.509h-271.82c-41.607 0-74.509-33.27-74.509-74.509zM620.603 750.537h257.934v-257.934h-257.934v257.934zM539.15 757.481v-271.82c0-41.607 33.27-74.509 74.509-74.509h271.82c41.607 0 74.509 33.27 74.509 74.509v271.82c0 41.607-33.27 74.509-74.509 74.509h-271.82c-41.607 0-74.509-33.27-74.509-74.509zM620.603 275.397h257.934v-257.934h-257.934v257.934zM539.15 282.341v-271.82c0-41.607 33.27-74.509 74.509-74.509h271.82c41.607 0 74.509 33.27 74.509 74.509v271.82c0 41.607-33.27 74.509-74.509 74.509h-271.82c-41.607 0-74.509-33.27-74.509-74.509z" />
<glyph unicode="&#xe903;" glyph-name="yuyan" d="M886.114 309.542h-127.926c3.829 24.437 6.443 49.193 6.443 74.46 0 31.775-4.147 62.719-10.272 93.026h127.225c7.466-29.861 11.932-60.868 11.932-93.026 0-25.521-2.617-50.342-7.401-74.46v0zM580.622 8.964c79.946 61.954 137.817 147.706 165.507 244.75h124.034c-45.684-125.63-155.171-220.314-289.54-244.75v0zM153.839 253.714h125.439c27.69-97.173 85.689-183.053 165.761-245.007-135.072 23.99-245.324 118.867-291.2 245.007v0zM142.419 477.028h128.565c-6.061-30.307-10.209-61.251-10.209-93.026 0-25.267 2.552-50.022 6.443-74.46h-129.331c-4.786 24.118-7.401 48.937-7.401 74.46 0 32.157 4.403 63.165 11.932 93.026v0zM445.039 759.231c-74.843-57.871-129.777-136.923-159.381-226.375h-124.991c49.576 116.888 155.936 203.597 284.374 226.375v0zM530.6 532.856v193.006c68.653-48.362 120.653-115.485 150.194-193.006h-150.194zM530.6 253.714h156.575c-27.947-85.306-82.498-159.446-156.575-211.574v211.574zM474.772 253.714v-197.025c-64.059 51.042-111.147 119.505-136.603 197.025h136.603zM344.612 532.856c26.607 69.865 71.269 131.499 130.159 178.395v-178.395h-130.159zM316.603 384.002c0 31.838 4.338 62.846 11.229 93.026h146.94v-167.484h-150.703c-4.403 24.373-7.466 49.065-7.466 74.46v0zM708.804 384.002c0-25.394-3.063-50.085-7.466-74.46h-170.738v167.484h166.975c6.826-30.179 11.229-61.188 11.229-93.026v0zM863.336 532.856h-123.651c-29.541 89.326-84.349 168.25-159.063 226.12 127.671-23.224 233.329-109.742 282.714-226.12v0zM511.968 821.312c-241.498 0-437.311-195.813-437.311-437.311 0-241.561 195.813-437.311 437.311-437.311 241.561 0 437.374 195.75 437.374 437.311 0 241.498-195.813 437.311-437.374 437.311v0z" />
<glyph unicode="&#xe904;" glyph-name="duoyugyan" horiz-adv-x="1170" d="M268.634 682.681l63.872-157.409h-126.943l63.071 157.409zM148.907 383.631l31 77.235h177.719l31.802-77.235c6.681-16.569 27.526-25.388 47.036-18.974 18.974 5.346 28.595 23.517 21.647 40.622l-155.002 383.231c-3.207 9.086-11.492 16.836-22.449 20.578-18.44 5.346-39.819-3.742-45.699-20.578l-154.735-383.231c-6.947-17.103 2.405-35.276 21.379-40.622 20.044-6.414 39.819 2.405 47.302 18.974v0zM458.111 741.047h389.645v-168.099l-64.942 64.673c-13.897 14.164-37.415 14.164-51.311-0.267-14.165-14.164-14.165-37.414 0-51.312l125.071-125.873c6.947-7.751 16.836-12.56 28.061-12.56 10.956 0 21.112 4.81 27.794 12.56l125.339 125.873c14.432 13.897 14.432 37.147 0 51.312-14.164 14.431-36.88 14.431-51.578 0.267l-64.942-64.673v204.711c0 20.845-16.569 36.88-36.613 36.88h-426.524c-20.311 0-36.346-16.035-36.346-36.88 0-20.311 16.035-36.613 36.346-36.613zM531.712 53.582h-238.384v168.099l64.673-64.673c14.965-14.164 37.681-14.164 52.38 0 14.165 14.431 14.165 37.414-0.534 52.112l-125.339 125.339-0.266 0.534-3.475 3.475-0.801 0.534-1.069 0.534c-1.871 1.604-3.475 2.405-4.543 3.208h-0.266l-1.069 0.534-0.801 0.534c-1.871 0.801-3.742 1.069-5.346 1.604l-0.534 0.534-3.207 0.534-2.939 0.534-2.405 0.534h-2.137l-1.871-0.534-3.475-0.534-3.208-0.534-0.534-0.534c-1.871-0.534-3.475-0.801-4.81-1.604l-1.069-0.534-1.337-0.534h-0.267c-1.337-0.801-2.405-1.604-4.009-3.208l-1.069-0.534-1.337-0.534-0.267-0.534-1.871-1.604-126.942-127.21c-14.431-14.698-14.431-37.948 0-52.112 14.164-14.164 37.414-14.164 51.845 0l64.406 64.673v-204.979c0-20.044 16.836-36.613 36.88-36.613h274.997c20.31 0 36.613 16.569 36.613 36.613 0 20.578-16.303 36.88-36.613 36.88zM799.545 262.141h148.589c-14.965-47.837-40.355-89.796-75.364-126.14-36.346 37.681-60.665 79.64-73.226 126.14zM927.558 90.836c41.422 47.57 73.226 104.761 95.942 171.304h67.881v60.397h-171.572c-6.146 17.37-12.56 34.742-18.707 52.648-3.741 8.552-6.414 14.965-7.483 18.707l-67.614-14.965c1.069-2.405 2.138-6.414 3.475-11.224 7.75-21.647 12.56-36.613 15.232-45.165h-186.272v-60.397h71.355c17.639-65.209 48.372-121.597 92.201-169.434-46.501-29.932-102.89-55.854-169.433-77.235 13.897-14.965 29.129-35.81 45.164-62.001 70.286 26.191 128.814 56.657 175.046 90.33 48.907-36.346 107.433-65.209 175.313-86.588 9.888 16.302 26.19 36.346 48.64 60.13-67.613 17.639-124.269 42.225-169.166 73.493z" />
<glyph unicode="&#xe905;" glyph-name="next-page" horiz-adv-x="768" d="M280 384l416 416v-832l-416 416zM72 696h104v-624h-104v624z" />
<glyph unicode="&#xe906;" glyph-name="other-finish" d="M512-64c-247.424 0-448 200.576-448 448s200.576 448 448 448c247.424 0 448-200.576 448-448s-200.576-448-448-448zM321.758 393.083c-17.389 21.735-49.105 25.26-70.841 7.872s-25.26-49.105-7.872-70.84l112-140c17.634-22.043 49.934-25.305 71.621-7.233l336 280c21.384 17.819 24.272 49.6 6.453 70.984s-49.599 24.272-70.984 6.453l-296.499-247.083-79.878 99.849z" />
<glyph unicode="&#xe907;" glyph-name="other-WenJian" d="M448 832l-320-320v-454.148c0-67.020 56.388-121.852 125.305-121.852h517.39c68.916 0 125.306 54.83 125.306 121.852v652.293c0 67.037-56.388 121.855-125.306 121.855h-322.694zM799.999 95.717c0-35.19-28.564-63.717-63.843-63.717h-448.314c-35.258 0-63.843 28.593-63.843 64.088v351.912h224.083c35.3 0 63.916 28.667 63.916 63.916v224.083h224.083c35.3 0 63.918-28.47 63.918-63.717v-576.566z" />
<glyph unicode="&#xe908;" glyph-name="other-WenBen" d="M447.999 832l-320-320v-454.148c0-67.020 56.388-121.852 125.305-121.852h517.39c68.916 0 125.306 54.831 125.306 121.852v652.293c0 67.037-56.388 121.855-125.306 121.855h-322.694zM799.999 95.717c0-35.19-28.564-63.717-63.843-63.717h-448.314c-35.259 0-63.843 28.593-63.843 64.088v351.912h224.083c35.3 0 63.917 28.667 63.917 63.917v224.083h224.083c35.3 0 63.917-28.47 63.917-63.717v-576.566zM351.999 192h320c17.673 0 32-14.327 32-32v0 0c0-17.673-14.327-32-32-32h-320c-17.673 0-32 14.327-32 32v0 0c0 17.673 14.327 32 32 32zM351.999 384h320c17.673 0 32-14.327 32-32v0 0c0-17.673-14.327-32-32-32h-320c-17.673 0-32 14.327-32 32v0 0c0 17.673 14.327 32 32 32zM607.999 576h64c17.673 0 32-14.327 32-32v0 0c0-17.673-14.327-32-32-32h-64c-17.673 0-32 14.327-32 32v0 0c0 17.673 14.327 32 32 32z" />
<glyph unicode="&#xe909;" glyph-name="other-picture" d="M192.375 768c-70.9 0-128.375-57.725-128.375-128.546v-510.908c0-70.994 57.412-128.546 128.375-128.546h639.25c70.9 0 128.375 57.725 128.375 128.546v510.908c0 70.994-57.412 128.546-128.375 128.546h-639.25zM714.233 426.265c0 0-10.203 19.994-46.073 19.994-40.698 0-52.934-19.376-52.934-19.376l-153.931-250.669c0 0-8.374-16.794-28.916-16.794-21.502 0-31.772 16.794-31.772 16.794l-80.948 97.612c0 0-20.742 28.976-47.692 28.976-26.843 0-49.139-32.064-49.139-32.064l-62.828-78.739v416.26c0 35.203 28.47 63.74 63.717 63.74h576.566c35.19 0 63.717-28.024 63.717-64.187v-383.813l-149.767 202.265zM480 480.019c0-53.048-42.971-96.019-95.984-96.019s-96.016 43.006-96.016 96.019c0 52.977 43.004 95.981 96.016 95.981 53.014-0.032 95.984-43.004 95.984-95.981v0 0z" />
<glyph unicode="&#xe90a;" glyph-name="ChangYongCanShu" horiz-adv-x="896" d="M729.394 831.99h-562.786c-51.588 0-93.798-40.319-93.798-89.598v-716.782c0-49.278 42.209-89.598 93.798-89.598h562.786c51.588 0 93.798 40.319 93.798 89.598v716.782c0 49.278-42.209 89.598-93.798 89.598v0zM166.606 742.392h234.494v-358.392l-117.248 67.198-117.248-67.198v358.392z" />
<glyph unicode="&#xe90b;" glyph-name="TiShiXinXi" d="M697.671 832h-371.343l-262.328-262.304v-371.368l262.328-262.328h371.343l262.328 262.328v371.368l-262.328 262.304zM511.999 120.177c-35.84 0-64.712 28.872-64.712 64.712s28.872 64.712 64.712 64.712c35.84 0 64.712-28.872 64.712-64.712s-28.872-64.712-64.712-64.712v0zM462.222 632.888h99.556v-298.667h-99.556v298.667z" />
<glyph unicode="&#xe90c;" glyph-name="TongJiXinXi" d="M64 791.159v-814.317c0-22.921 18.285-40.841 40.841-40.841h814.317c22.921 0 40.841 18.285 40.841 40.841v814.317c0 22.921-18.285 40.841-40.841 40.841h-814.317c-22.921 0-40.841-18.285-40.841-40.841zM389.844 180.368h-81.472v285.104h81.472v-285.104zM552.736 180.368h-81.472v407.264h81.472v-407.264zM715.632 180.368h-81.472v162.896h81.472v-162.896z" />
<glyph unicode="&#xe90d;" glyph-name="TuoZhuai" horiz-adv-x="377" d="M94.3 690.526c-39.067 0-70.736 31.67-70.736 70.736s31.67 70.736 70.736 70.736c39.067 0 70.736-31.67 70.736-70.736s-31.67-70.736-70.736-70.736zM94.3 501.895c-39.067 0-70.736 31.67-70.736 70.736s31.67 70.736 70.736 70.736c39.067 0 70.736-31.67 70.736-70.736s-31.67-70.736-70.736-70.736zM94.3 124.631c-39.067 0-70.736 31.67-70.736 70.736s31.67 70.736 70.736 70.736c39.067 0 70.736-31.67 70.736-70.736s-31.67-70.736-70.736-70.736zM282.931 690.526c-39.067 0-70.736 31.67-70.736 70.736s31.67 70.736 70.736 70.736c39.067 0 70.736-31.67 70.736-70.736s-31.67-70.736-70.736-70.736zM282.931 501.895c-39.067 0-70.736 31.67-70.736 70.736s31.67 70.736 70.736 70.736c39.067 0 70.736-31.67 70.736-70.736s-31.67-70.736-70.736-70.736zM282.931 124.631c-39.067 0-70.736 31.67-70.736 70.736s31.67 70.736 70.736 70.736c39.067 0 70.736-31.67 70.736-70.736s-31.67-70.736-70.736-70.736zM94.3 313.264c-39.067 0-70.736 31.67-70.736 70.736s31.67 70.736 70.736 70.736c39.067 0 70.736-31.67 70.736-70.736s-31.67-70.736-70.736-70.736zM94.3-64c-39.067 0-70.736 31.67-70.736 70.736s31.67 70.736 70.736 70.736c39.067 0 70.736-31.67 70.736-70.736s-31.67-70.736-70.736-70.736zM282.931 313.264c-39.067 0-70.736 31.67-70.736 70.736s31.67 70.736 70.736 70.736c39.067 0 70.736-31.67 70.736-70.736s-31.67-70.736-70.736-70.736zM282.931-64c-39.067 0-70.736 31.67-70.736 70.736s31.67 70.736 70.736 70.736c39.067 0 70.736-31.67 70.736-70.736s-31.67-70.736-70.736-70.736z" />
<glyph unicode="&#xe90e;" glyph-name="WeiDuQieHuan" d="M260 832h504c108.248 0 196-87.752 196-196v0c0-108.248-87.752-196-196-196h-504c-108.248 0-196 87.752-196 196v0 0c0 108.248 87.752 196 196 196v0zM708 552c46.391 0 84 37.609 84 84s-37.609 84-84 84c-46.391 0-84-37.609-84-84s37.609-84 84-84zM260 272c-77.32 0-140-62.68-140-140s62.68-140 140-140h504c77.32 0 140 62.68 140 140s-62.68 140-140 140h-504zM260 328h504c108.248 0 196-87.752 196-196s-87.752-196-196-196h-504c-108.248 0-196 87.752-196 196s87.752 196 196 196zM260 48c46.391 0 84 37.609 84 84s-37.609 84-84 84c-46.391 0-84-37.609-84-84s37.609-84 84-84z" />
<glyph unicode="&#xe90f;" glyph-name="YongHuHuanLi" horiz-adv-x="960" d="M815.994 767.993h-200.636c-20.16 55.679-72.959 95.998-135.356 95.998s-115.198-40.319-135.356-95.998h-200.636c-52.799 0-95.998-43.199-95.998-95.998v-671.987c0-52.799 43.199-95.998 95.998-95.998h671.987c52.799 0 95.998 43.199 95.998 95.998v671.987c0 52.799-43.199 95.998-95.998 95.998v0zM480 767.993c26.399 0 47.999-21.6 47.999-47.999s-21.6-47.999-47.999-47.999c-26.399 0-47.999 21.6-47.999 47.999s21.6 47.999 47.999 47.999zM480 552.213c63.649 0 115.028-49.262 115.028-110.287s-51.38-110.287-115.028-110.287c-63.649 0-115.028 49.262-115.028 110.287s51.38 110.287 115.028 110.287zM710.056 111.062h-460.115v51.468c0 73.525 153.371 113.964 230.056 113.964s230.056-40.439 230.056-113.964v-51.468z" />
<glyph unicode="&#xe910;" glyph-name="YongHuLieBiao" horiz-adv-x="1434" d="M1177.748 767.958v-767.915h76.791v767.915h-76.791zM1024.166 0.042h76.791v767.915h-76.791v-767.915zM892.532 767.958h-658.23c-30.138 0-54.841-24.676-54.841-54.828v-658.256c0-30.152 24.704-54.828 54.841-54.828h658.23c30.138 0 54.841 24.676 54.841 54.828v658.256c0 30.152-24.704 54.828-54.841 54.828v0zM563.417 691.167c84.68 0 153.582-68.919 153.582-153.582s-68.983-153.582-153.582-153.582c-84.68 0-153.582 68.919-153.582 153.582s68.983 153.582 153.582 153.582v0zM870.502 153.626h-614.251v38.411c0 76.763 204.724 115.172 307.167 115.172s307.167-38.411 307.167-115.172v-38.411h-0.079z" />
<glyph unicode="&#xe911;" glyph-name="YouXiangGuanLi" horiz-adv-x="1260" d="M1005.003 755.771h-750.006c-51.562 0-93.282-41.825-93.282-92.942l-0.47-557.656c0-51.119 42.187-92.942 93.751-92.942h750.006c51.562 0 93.751 41.825 93.751 92.942v557.656c0 51.119-42.187 92.942-93.751 92.942v0zM1001.77 566.421l-371.771-230.914-371.771 230.914v92.365l371.771-230.914 371.771 230.914v-92.365z" />
<glyph unicode="&#xe912;" glyph-name="YuYanKuGuanLi" horiz-adv-x="1092" d="M1007.488 623.482c14.323-20.625 18.334-47.552 10.313-73.907l-157.554-519.067c-14.323-48.698-64.74-86.511-114.012-86.511h-528.805c-58.439 0-120.887 46.407-142.085 105.99-9.166 25.782-9.166 50.989-1.146 72.761 0.763 7.638 78.266 221.525 232.51 641.657 18.202 39.731 54.52 59.597 108.952 59.597h435.993c26.927 0 50.989-12.031 65.314-32.083 14.897-20.625 18.334-47.552 10.313-74.48l-156.98-519.067c-26.927-88.23-41.823-107.709-114.584-107.709h-497.869c-7.447 0-16.616-1.719-21.771-8.594-4.584-6.875-5.156-12.031-0.572-24.635 11.459-33.229 50.989-40.104 82.501-40.104h528.805c21.198 0 45.833 12.032 52.136 32.657l171.876 565.474c3.438 10.885 3.438 22.344 2.865 32.657 13.178-5.156 25.209-13.178 33.802-24.635zM397.901 622.335c-3.438-10.313 2.291-18.334 12.604-18.334h348.337c9.74 0 20.625 8.022 24.063 18.334l12.031 36.667c3.438 10.313-2.291 18.334-12.604 18.334h-348.337c-9.74 0-20.625-8.022-24.063-18.334l-12.031-36.667zM350.347 475.668c-3.438-10.313 2.291-18.334 12.604-18.334h348.337c9.74 0 20.625 8.022 24.063 18.334l12.031 36.667c3.438 10.313-2.291 18.334-12.604 18.334h-348.337c-9.74 0-20.625-8.022-24.063-18.334l-12.031-36.667z" />
<glyph unicode="&#xe913;" glyph-name="ZhanDianGuanLi" d="M511.552 832c-247.296 0-447.552-200.704-447.552-448s200.256-448 447.552-448c247.744 0 448.448 200.704 448.448 448s-200.704 448-448.448 448v0zM701.504 115.2l-189.504 114.24-189.504-114.24 50.176 215.488-167.104 144.704 220.416 18.816 86.016 203.392 86.016-202.944 220.416-18.816-167.104-144.704 50.176-215.936z" />
<glyph unicode="&#xe914;" glyph-name="DaoRuLieBiao" d="M265.993 214.871v-30.751c0-8.168-7.207-15.376-15.376-15.376h-30.751c-8.168 0-15.376 7.207-15.376 15.376v30.751c0 8.168 7.207 15.376 15.376 15.376h30.751c8.168 0 15.376-7.207 15.376-15.376zM265.993 337.875v-30.751c0-8.168-7.207-15.376-15.376-15.376h-30.751c-8.168 0-15.376 7.207-15.376 15.376v30.751c0 8.168 7.207 15.376 15.376 15.376h30.751c8.168 0 15.376-7.207 15.376-15.376zM265.993 460.879v-30.751c0-8.168-7.207-15.376-15.376-15.376h-30.751c-8.168 0-15.376 7.207-15.376 15.376v30.751c0 8.168 7.207 15.376 15.376 15.376h30.751c8.168 0 15.376-7.207 15.376-15.376zM819.51 214.871v-30.751c0-8.168-7.207-15.376-15.376-15.376h-461.265c-8.168 0-15.376 7.207-15.376 15.376v30.751c0 8.168 7.207 15.376 15.376 15.376h461.265c8.168 0 15.376-7.207 15.376-15.376zM819.51 337.875v-30.751c0-8.168-7.207-15.376-15.376-15.376h-461.265c-8.168 0-15.376 7.207-15.376 15.376v30.751c0 8.168 7.207 15.376 15.376 15.376h461.265c8.168 0 15.376-7.207 15.376-15.376zM819.51 460.879v-30.751c0-8.168-7.207-15.376-15.376-15.376h-461.265c-8.168 0-15.376 7.207-15.376 15.376v30.751c0 8.168 7.207 15.376 15.376 15.376h461.265c8.168 0 15.376-7.207 15.376-15.376zM881.011 122.617v399.763c0 8.168-7.207 15.376-15.376 15.376h-707.273c-8.168 0-15.376-7.207-15.376-15.376v-399.763c0-8.168 7.207-15.376 15.376-15.376h707.273c8.168 0 15.376 7.207 15.376 15.376zM942.514 645.383v-522.766c0-42.282-34.595-76.877-76.877-76.877h-707.273c-42.282 0-76.877 34.595-76.877 76.877v522.766c0 42.282 34.595 76.877 76.877 76.877h707.273c42.282 0 76.877-34.595 76.877-76.877z" />
<glyph unicode="&#xe915;" glyph-name="MuBanGuanLi" horiz-adv-x="896" d="M720.997 799.997c50.050 0 91-37.44 91-83.2v-665.595c0-45.76-40.95-83.2-91-83.2h-545.997c-50.050 0-91 37.44-91 83.2v665.595c0 45.76 40.95 83.2 91 83.2h545.997zM643.974 358v52l56.73 41.6c5.156 5.2 5.156 10.4 5.156 15.6l-51.573 88.4c-5.156 5.2-10.315 10.4-15.472 5.2l-67.045-20.8c-15.472 10.4-30.944 20.8-46.415 26l-10.315 67.6c0 5.2-5.156 10.4-15.472 10.4h-103.145c-5.156 0-10.315-5.2-15.472-10.4l-10.315-67.6c-15.472-5.2-30.944-15.6-46.415-26l-67.045 26c-5.156 0-10.315 0-15.472-5.2l-51.573-88.4c-5.156-5.2 0-10.4 5.156-15.6l56.73-41.6v-52l-56.73-41.6c-5.156-10.4-5.156-15.6-5.156-20.8l51.573-88.4c5.156-5.2 10.315-10.4 15.472-5.2l72.202 20.8c15.472-10.4 30.945-20.8 46.415-26l10.315-67.6c-5.156-5.2 5.156-10.4 10.315-10.4h103.145c5.156 0 10.315 5.2 15.472 10.4l10.315 67.6c15.472 5.2 30.944 15.6 46.415 26l67.045-26c5.156 0 10.315 0 15.472 5.2l51.573 88.4c5.156 5.2 0 10.4-5.156 15.6l-56.73 46.8zM448 280c-57.2 0-104 46.8-104 104s46.8 104 104 104c57.2 0 104-46.8 104-104s-46.8-104-104-104z" />
<glyph unicode="&#xe916;" glyph-name="WenJuanBeiJing" d="M368.011 527.988c0-47.697-38.697-86.394-86.394-86.394s-86.394 38.697-86.394 86.394c0 47.697 38.697 86.394 86.394 86.394s86.394-38.697 86.394-86.394zM828.777 355.2v-201.585h-633.553v86.394l143.989 143.989 71.995-71.995 230.383 230.383 187.187-187.187zM871.975 671.976h-719.947c-7.649 0-14.399-6.75-14.399-14.399v-547.16c0-7.649 6.75-14.399 14.399-14.399h719.947c7.649 0 14.399 6.75 14.399 14.399v547.16c0 7.649-6.75 14.399-14.399 14.399zM943.968 657.578v-547.16c0-39.597-32.398-71.995-71.995-71.995h-719.947c-39.597 0-71.995 32.398-71.995 71.995v547.16c0 39.597 32.398 71.995 71.995 71.995h719.947c39.597 0 71.995-32.398 71.995-71.995z" />
<glyph unicode="&#xe917;" glyph-name="YiFaSongDuanXin" d="M959.973 504.992v-488.973c0-43.998-35.999-79.995-79.995-79.995h-735.959c-43.998 0-79.995 35.999-79.995 79.995v488.973c0 4.499 2 9 5.5 12 52.498 45.997 52.997 51.497 313.983 241.987 31.498 22.999 86.995 72.997 128.493 72.997s97.495-50.496 128.493-72.997c260.986-190.49 261.485-195.99 313.983-241.987 3.5-3.001 5.5-7.499 5.5-12zM677.988 212.508c77.995 56.497 132.493 95.994 172.491 125.993 7 5 8.5 14.999 3.001 21.999l-18.998 25.998c-5.5 7-15.498 8.5-22.498 3.001-39.497-28.999-93.495-68.996-171.49-124.993-30.999-22.498-86.995-72.495-128.493-72.495s-97.495 49.997-128.493 72.495c-77.995 56.497-131.993 95.994-171.49 124.993-7 5.5-16.999 3.999-22.498-3.001l-18.998-25.998c-5.5-7-3.999-16.999 3.001-21.999 39.998-29.998 94.494-69.497 172.491-125.993 38.997-27.998 100.495-84.495 165.99-84.495 65.997 0 128.993 57.496 165.99 84.495z" />
<glyph unicode="&#xe918;" glyph-name="ZhongJiangGuanLi" d="M605.328 41.020v529.637h-186.655v-529.637c0-20.415 16.915-30.331 37.331-30.331h111.994c20.415 0 37.331 9.915 37.331 30.331zM339.342 645.319h113.744l-73.496 93.911c-6.416 7.583-20.415 18.083-40.248 18.083-30.915 0-55.996-25.083-55.996-55.996s25.083-55.996 55.996-55.996zM740.652 701.315c0 30.915-25.083 55.996-55.996 55.996-19.833 0-33.831-10.5-40.248-18.083l-72.913-93.911h113.16c30.915 0 55.996 25.083 55.996 55.996zM959.973 551.99v-186.655c0-10.5-8.165-18.665-18.665-18.665h-55.996v-354.647c0-30.915-25.083-55.996-55.996-55.996h-634.631c-30.915 0-55.996 25.083-55.996 55.996v354.647h-55.996c-10.5 0-18.665 8.165-18.665 18.665v186.655c0 10.5 8.165 18.665 18.665 18.665h256.651c-72.329 0-130.659 58.331-130.659 130.659s58.331 130.659 130.659 130.659c39.081 0 75.246-16.333 97.994-44.913l74.663-96.244 74.663 96.244c22.748 28.582 58.913 44.913 97.994 44.913 72.329 0 130.659-58.331 130.659-130.659s-58.331-130.659-130.659-130.659h256.651c10.5 0 18.665-8.165 18.665-18.665z" />
<glyph unicode="&#xe919;" glyph-name="ShangChuanTuPian" horiz-adv-x="1365" d="M526.058 516.977c0-51.823-42.045-93.867-93.867-93.867s-93.867 42.045-93.867 93.867c0 51.823 42.046 93.867 93.867 93.867s93.867-42.046 93.867-93.867zM1034.504 362.269v-212.938h-704.001v91.26l160 152.1 79.999-76.049 255.999 243.358 208-197.73zM1069.704 677.332h-782.223c-8.311 0-15.646-6.875-15.646-14.669v-557.332c0-7.794 7.332-14.669 15.646-14.669h782.223c8.311 0 15.646 6.875 15.646 14.669v557.332c0 7.794-7.332 14.669-15.646 14.669zM1151.835 662.667v-557.332c0-40.332-35.2-73.332-78.223-73.332h-782.223c-43.023 0-78.223 33-78.223 73.332v557.332c0 40.332 35.2 73.332 78.223 73.332h782.223c43.023 0 78.223-33 78.223-73.332z" />
<glyph unicode="&#xe91a;" glyph-name="ErWeiMa" d="M308.379 180.379v-81.449h-81.449v81.449h81.449zM308.379 669.070v-81.449h-81.449v81.449h81.449zM797.070 669.070v-81.449h-81.449v81.449h81.449zM145.481 18.116h244.347v243.709h-244.347v-243.709zM145.481 506.172h244.347v244.347h-244.347v-244.347zM634.172 506.172h244.347v244.347h-244.347v-244.347zM471.276 343.276v-407.245h-407.245v407.245h407.245zM797.070 17.481v-81.449h-81.449v81.449h81.449zM959.968 17.481v-81.449h-81.449v81.449h81.449zM959.968 343.276v-244.347h-244.347v81.449h-81.449v-244.347h-81.449v407.245h244.347v-81.449h81.449v81.449h81.449zM471.276 831.968v-407.245h-407.245v407.245h407.245zM959.968 831.968v-407.245h-407.245v407.245h407.245z" />
<glyph unicode="&#xe91b;" glyph-name="Mobile" horiz-adv-x="731" d="M589.674 831.972c52.988 0 95.994-37.63 95.994-83.994v-727.956c0-46.366-43.006-83.994-95.994-83.994h-447.972c-53.021 0-95.994 37.63-95.994 83.994v727.956c0 46.366 42.973 83.994 95.994 83.994h447.972zM141.7 719.984v-615.962h447.972v615.962h-447.972zM429.683 25.584c0 35.39-28.67 64.027-63.997 64.027s-63.997-28.637-63.997-64.027c0-35.326 28.67-63.964 63.997-63.964s63.997 28.637 63.997 63.964zM461.682 775.976c0 15.483-14.943 27.998-33.374 27.998h-125.241c-18.399 0-33.374-12.516-33.374-27.998s14.943-27.998 33.374-27.998h125.241c18.431 0 33.374 12.516 33.374 27.998z" />
<glyph unicode="&#xe91c;" glyph-name="Pad" horiz-adv-x="1243" d="M115.128 692.572c0 56.777 42.536 102.857 94.944 102.857h822.857c52.41 0 94.944-46.080 94.944-102.857v-617.143c0-56.811-42.536-102.857-94.944-102.857h-822.857c-52.41 0-94.944 46.046-94.944 102.857v617.143zM210.067 75.43h727.913v617.143h-727.913v-617.143zM1032.962 452.573c-35.004 0-63.328-30.721-63.328-68.572s28.325-68.572 63.328-68.572c34.939 0 63.264 30.721 63.264 68.572s-28.325 68.572-63.264 68.572z" />
<glyph unicode="&#xe91d;" glyph-name="PC" horiz-adv-x="1092" d="M934.267 204.8h-776.533v537.6h776.533v-537.6zM934.267 832h-776.533c-49.459 0-89.6-40.141-89.6-89.6v-537.6c0-49.459 40.141-89.6 89.6-89.6h238.933v-59.733h-89.6c-32.973 0-59.733-26.761-59.733-59.733 0-33.003 26.761-59.733 59.733-59.733h477.867c32.973 0 59.733 26.731 59.733 59.733 0 32.973-26.761 59.733-59.733 59.733h-89.6v59.733h238.933c49.459 0 89.6 40.141 89.6 89.6v537.6c0 49.459-40.141 89.6-89.6 89.6v0z" />
<glyph unicode="&#xe91e;" glyph-name="ShangYi" d="M716.152 395.665c-2.917-7-9.915-11.665-17.498-11.665h-111.992v-205.319c0-10.5-8.165-18.665-18.665-18.665h-111.992c-10.5 0-18.665 8.165-18.665 18.665v205.319h-111.992c-10.5 0-18.665 8.165-18.665 18.665 0 5.25 2.333 9.915 5.833 13.999l186.071 186.071c4.083 3.5 8.75 5.25 13.415 5.25s9.333-1.75 13.415-5.25l186.653-186.653c5.25-5.833 7-13.415 4.083-20.415zM512 775.972c-216.161 0-391.972-175.811-391.972-391.972s175.811-391.972 391.972-391.972c216.161 0 391.972 175.811 391.972 391.972s-175.811 391.972-391.972 391.972zM959.968 384c0-247.317-200.653-447.968-447.968-447.968s-447.968 200.653-447.968 447.968c0 247.317 200.653 447.968 447.968 447.968s447.968-200.653 447.968-447.968z" />
<glyph unicode="&#xe91f;" glyph-name="XiaYi-Copy-2" d="M530.665 589.319c5.25 0 9.915-2.333 13.999-5.833l186.071-186.071c3.5-4.083 5.25-8.75 5.25-13.415s-1.75-9.333-5.25-13.415l-186.653-186.653c-5.833-5.25-13.415-7-20.415-4.083s-11.665 9.915-11.665 17.498v111.992h-205.319c-10.5 0-18.665 8.165-18.665 18.665v111.992c0 10.5 8.165 18.665 18.665 18.665h205.319v111.992c0 10.5 8.165 18.665 18.665 18.665zM120.028 384c0-216.161 175.811-391.972 391.972-391.972s391.972 175.811 391.972 391.972c0 216.161-175.811 391.972-391.972 391.972s-391.972-175.811-391.972-391.972zM512 831.968c247.317 0 447.968-200.653 447.968-447.968s-200.653-447.968-447.968-447.968c-247.317 0-447.968 200.653-447.968 447.968s200.653 447.968 447.968 447.968z" />
<glyph unicode="&#xe920;" glyph-name="XiaYi" d="M717.319 365.335c0-5.25-2.333-9.915-5.833-13.999l-186.071-186.071c-4.083-3.5-8.75-5.25-13.415-5.25s-9.333 1.75-13.415 5.25l-186.653 186.653c-5.25 5.833-7 13.415-4.083 20.415s9.915 11.665 17.498 11.665h111.992v205.319c0 10.5 8.165 18.665 18.665 18.665h111.992c10.5 0 18.665-8.165 18.665-18.665v-205.319h111.992c10.5 0 18.665-8.165 18.665-18.665zM512 775.972c-216.161 0-391.972-175.811-391.972-391.972s175.811-391.972 391.972-391.972c216.161 0 391.972 175.811 391.972 391.972s-175.811 391.972-391.972 391.972zM959.968 384c0-247.317-200.653-447.968-447.968-447.968s-447.968 200.653-447.968 447.968c0 247.317 200.653 447.968 447.968 447.968s447.968-200.653 447.968-447.968z" />
<glyph unicode="&#xe921;" glyph-name="notdef" horiz-adv-x="374" d="M34 0v682h272v-682h-272zM68 34h204v614h-204v-614z" />
<glyph unicode="&#xe922;" glyph-name="bianjishu" d="M204.48 153.36c0 8.168-7.207 15.376-15.376 15.376h-92.256c-8.168 0-15.376-7.207-15.376-15.376v-92.256c0-8.168 7.207-15.376 15.376-15.376h92.256c8.168 0 15.376 7.207 15.376 15.376v92.256zM204.48 337.872c0 8.168-7.207 15.376-15.376 15.376h-92.256c-8.168 0-15.376-7.207-15.376-15.376v-92.256c0-8.168 7.207-15.376 15.376-15.376h92.256c8.168 0 15.376 7.207 15.376 15.376v92.256zM204.48 522.383c0 8.168-7.207 15.376-15.376 15.376h-92.256c-8.168 0-15.376-7.207-15.376-15.376v-92.256c0-8.168 7.207-15.376 15.376-15.376h92.256c8.168 0 15.376 7.207 15.376 15.376v92.256zM942.528 153.36c0 8.168-7.207 15.376-15.376 15.376h-645.792c-8.168 0-15.376-7.207-15.376-15.376v-92.256c0-8.168 7.207-15.376 15.376-15.376h645.792c8.168 0 15.376 7.207 15.376 15.376v92.256zM204.48 706.896c0 8.168-7.207 15.376-15.376 15.376h-92.256c-8.168 0-15.376-7.207-15.376-15.376v-92.256c0-8.168 7.207-15.376 15.376-15.376h92.256c8.168 0 15.376 7.207 15.376 15.376v92.256zM942.528 337.872c0 8.168-7.207 15.376-15.376 15.376h-645.792c-8.168 0-15.376-7.207-15.376-15.376v-92.256c0-8.168 7.207-15.376 15.376-15.376h645.792c8.168 0 15.376 7.207 15.376 15.376v92.256zM942.528 522.383c0 8.168-7.207 15.376-15.376 15.376h-645.792c-8.168 0-15.376-7.207-15.376-15.376v-92.256c0-8.168 7.207-15.376 15.376-15.376h645.792c8.168 0 15.376 7.207 15.376 15.376v92.256zM942.528 706.896c0 8.168-7.207 15.376-15.376 15.376h-645.792c-8.168 0-15.376-7.207-15.376-15.376v-92.256c0-8.168 7.207-15.376 15.376-15.376h645.792c8.168 0 15.376 7.207 15.376 15.376v92.256z" />
<glyph unicode="&#xe923;" glyph-name="fwb-xieti" d="M387.558 831.988v-191.995h137.508l-212.794-511.985h-173.594v-191.995h497.763v191.995h-137.508l212.794 511.985h173.594v191.995z" />
<glyph unicode="&#xe924;" glyph-name="fwb-chaolianjie" d="M149.132 384c0 76.606 62.27 138.876 138.876 138.876h179.195v85.117h-179.195c-123.643 0-223.992-100.349-223.992-223.992s100.349-223.992 223.992-223.992h179.195v85.117h-179.195c-76.606 0-138.876 62.27-138.876 138.876v0zM332.805 339.201h358.388v89.596h-358.388v-89.596zM735.992 607.992h-179.195v-85.117h179.195c76.606 0 138.876-62.27 138.876-138.876s-62.27-138.876-138.876-138.876h-179.195v-85.117h179.195c123.643 0 223.992 100.349 223.992 223.992s-100.349 223.992-223.992 223.992v0z" />
<glyph unicode="&#xe925;" glyph-name="fwb-cuti" d="M735.993 397.44c67.372 42.879 114.601 113.277 114.601 178.555 0 144.635-121.547 255.992-277.821 255.992h-434.096v-895.974h488.966c145.162 0 257.679 108.797 257.679 242.553 0 97.277-59.731 180.475-149.329 218.873v0zM347.042 671.991h208.365c57.647 0 104.184-42.879 104.184-95.996s-46.535-95.996-104.184-95.996h-208.365v191.995zM590.136 96.009h-243.093v191.995h243.093c57.647 0 104.184-42.879 104.184-95.996s-46.534-95.996-104.184-95.996v0z" />
<glyph unicode="&#xe926;" glyph-name="tuozhuanbashou" d="M636.441 831.986h106.663c9.444 0 17.777-7.499 17.777-16v-687.98h106.663c9.444 0 17.777-7 17.777-16 0-4.5-2.222-8.5-5.555-12l-177.773-159.496c-3.334-3.001-7.777-4.5-12.222-4.5-5 0-9.444 1.5-12.777 4.5l-177.773 159.995c-3.334 3.001-5 7.499-5 11.499 0 8.5 7.777 16 17.777 16h106.663v687.98c0 8.5 7.777 16 17.778 16zM334.228 831.986c4.444 0 9.444-1.5 12.777-4.5l177.773-159.995c3.334-3.001 5-7.499 5-11.499 0-8.5-8.334-16-17.777-16h-106.663v-687.98c0-8.5-8.334-16-17.778-16h-106.663c-9.444 0-17.777 7.499-17.777 16v687.98h-106.663c-10.001 0-17.777 7-17.777 16 0 4.5 2.222 8.5 5.555 12l177.218 159.496c3.334 3.001 8.334 4.5 12.777 4.5z" />
<glyph unicode="&#xe927;" glyph-name="fwb-tupian" d="M959.986 35.566v696.868c0 54.754-44.798 99.552-99.552 99.552h-696.868c-54.754 0-99.552-44.798-99.552-99.552v-696.868c0-54.754 44.798-99.552 99.552-99.552h696.868c54.754 0 99.552 44.798 99.552 99.552v0zM372.004 439.998c-46.391 0-83.998 37.607-83.998 83.998s37.607 83.998 83.998 83.998c46.391 0 83.998-37.607 83.998-83.998s-37.607-83.998-83.998-83.998zM337.783 309.335l124.44-149.827 174.217 224.491 223.994-298.657h-696.868l174.217 223.994z" />
<glyph unicode="&#xe928;" glyph-name="xiala4" d="M128 639.786v-511.571c0-70.899 57.346-128.215 128.215-128.215h511.571c70.899 0 128.215 57.346 128.215 128.215v511.571c0 70.899-57.346 128.215-128.215 128.215h-511.571c-70.899 0-128.215-57.346-128.215-128.215zM511.77 260.846l-226.82 226.82c-13.041 13.041-35.424 13.247-49.103-0.431-13.279-13.279-13.871-35.663-0.431-49.103l248.703-248.703c9.289-9.289 23.32-12.066 35.567-7.95 7.738 0.696 15.202 3.928 20.883 9.611l247.422 247.422c13.371 13.371 12.78 35.639-0.429 48.85-13.608 13.608-35.875 13.404-48.85 0.429l-226.945-226.945zM63.999 639.786c0 106.156 85.911 192.214 192.214 192.214h511.571c106.156 0 192.214-85.911 192.214-192.214v-511.571c0-106.156-85.911-192.214-192.214-192.214h-511.571c-106.156 0-192.214 85.911-192.214 192.214v511.571z" />
<glyph unicode="&#xe929;" glyph-name="ahi" horiz-adv-x="1446" d="M1219.299 85.941h-860.566c-68.323 0-123.643 51.911-123.643 115.934 0 63.971 55.318 115.882 123.643 115.882h728.533c146.347 0 264.955 111.215 264.955 248.385s-118.608 248.385-264.955 248.385h-860.566c-36.914 0-66.697-29.679-66.697-66.225 0-36.861 29.836-66.277 66.697-66.277h860.566c68.27 0 123.643-51.859 123.643-115.882s-55.372-115.934-123.643-115.934h-728.533c-146.347 0-264.955-111.163-264.955-248.332 0-137.223 118.608-248.385 264.955-248.385h860.566c36.809 0 66.697 29.364 66.697 66.225 0 36.548-29.836 66.225-66.697 66.225z" />
<glyph unicode="&#xe92a;" glyph-name="caozuo" horiz-adv-x="1536" d="M96 384c0 247.424 201.211 448 447.532 448h448.935c247.165 0 447.532-201.080 447.532-448 0-247.424-201.211-448-447.532-448h-448.935c-247.165 0-447.532 201.080-447.532 448zM954.667 458.667c-20.612 0-37.333-16.723-37.333-37.333v-74.667c0-20.612 16.723-37.333 37.333-37.333h74.667c20.612 0 37.333 16.723 37.333 37.333v74.667c0 20.612-16.723 37.333-37.333 37.333h-74.667zM730.667 458.667c-20.612 0-37.333-16.723-37.333-37.333v-74.667c0-20.612 16.723-37.333 37.333-37.333h74.667c20.612 0 37.333 16.723 37.333 37.333v74.667c0 20.612-16.723 37.333-37.333 37.333h-74.667zM506.667 458.667c-20.612 0-37.333-16.723-37.333-37.333v-74.667c0-20.612 16.723-37.333 37.333-37.333h74.667c20.612 0 37.333 16.723 37.333 37.333v74.667c0 20.612-16.723 37.333-37.333 37.333h-74.667z" />
<glyph unicode="&#xe92b;" glyph-name="numen" d="M602.795 726.587l-19.115 105.413h-430.080v-896h95.573v368.941h267.63l19.090-105.413h334.507v527.059h-267.605z" />
<glyph unicode="&#xe92c;" glyph-name="chakan" d="M870.4 832h-716.8c-49.28 0-89.152-40.32-89.152-89.6l-0.448-806.4 179.2 179.2h627.2c49.28 0 89.6 40.32 89.6 89.6v537.6c0 49.28-40.32 89.6-89.6 89.6v0zM243.2 384h89.6v-89.6h-89.6v89.6zM243.2 518.4h89.6v-89.6h-89.6v89.6zM243.2 652.8h89.6v-89.6h-89.6v89.6zM422.4 384h224v-89.6h-224v89.6zM422.4 518.4h358.4v-89.6h-358.4v89.6zM422.4 652.8h358.4v-89.6h-358.4v89.6z" />
<glyph unicode="&#xe92d;" glyph-name="chexiao" d="M512 832c-247.296 0-448-200.704-448-448s200.704-448 448-448c247.296 0 448 200.704 448 448s-200.704 448-448 448v0zM512 25.6c-198.016 0-358.4 160.384-358.4 358.4 0 82.88 28.224 159.040 75.712 219.52l502.208-502.208c-60.48-47.488-136.64-75.712-219.52-75.712v0zM794.688 164.48l-502.208 502.208c60.48 47.488 136.64 75.712 219.52 75.712 198.016 0 358.4-160.384 358.4-358.4 0-82.88-28.224-159.040-75.712-219.52v0z" />
<glyph unicode="&#xe92e;" glyph-name="dianhua" d="M244.195 444.232c71.68-140.872 187.164-255.858 328.036-328.036l109.512 109.512c13.44 13.44 33.351 17.92 50.773 11.947 55.752-18.416 115.982-28.373 177.707-28.373 27.378 0 49.778-22.4 49.778-49.776v-173.724c0-27.376-22.4-49.776-49.778-49.776-467.413 0-846.222 378.808-846.222 846.224 0 27.376 22.4 49.776 49.776 49.776h174.224c27.378 0 49.776-22.4 49.776-49.776 0-62.224 9.956-121.956 28.373-177.707 5.476-17.422 1.493-36.836-12.444-50.773l-109.512-109.512z" />
<glyph unicode="&#xe92f;" glyph-name="more" d="M128.001 639.787v-511.571c0-70.899 57.346-128.215 128.215-128.215h511.571c70.899 0 128.215 57.346 128.215 128.215v511.571c0 70.899-57.346 128.215-128.215 128.215h-511.571c-70.899 0-128.215-57.346-128.215-128.215zM64 639.787c0 106.156 85.912 192.214 192.214 192.214h511.571c106.156 0 192.214-85.91 192.214-192.214v-511.571c0-106.156-85.912-192.214-192.214-192.214h-511.571c-106.156 0-192.214 85.91-192.214 192.214v511.571zM319.999 320c35.345 0 64 28.653 64 64s-28.654 64-64 64c-35.345 0-64-28.653-64-64s28.654-64 64-64zM512 320c35.345 0 64 28.653 64 64s-28.654 64-64 64c-35.345 0-64-28.653-64-64s28.654-64 64-64zM704.001 320c35.345 0 64 28.653 64 64s-28.654 64-64 64c-35.345 0-64-28.653-64-64s28.654-64 64-64z" />
<glyph unicode="&#xe930;" glyph-name="gonghao" d="M647.125 757.78c-20.124 54.178-72.833 93.418-135.148 93.418-62.291 0-115.001-39.24-135.125-93.418h-200.298c-52.71 0-95.814-42.050-95.814-93.442v-654.095c0-51.392 43.105-93.442 95.814-93.442h670.868c52.71 0 95.839 42.050 95.839 93.442v654.095c0 51.392-43.128 93.442-95.839 93.442h-200.298zM511.977 755.384c26.367 0 47.931-21.564 47.931-47.931s-21.564-47.908-47.931-47.908c-26.343 0-47.907 21.541-47.907 47.908s21.564 47.931 47.907 47.931v0zM511.977 563.707c79.557 0 143.77-64.212 143.77-143.77 0-79.533-64.213-143.745-143.77-143.745-79.533 0-143.745 64.213-143.745 143.745 0 79.557 64.212 143.77 143.745 143.77v0zM799.492-11.322h-575.006v67.094c0 95.839 191.676 148.548 287.491 148.548 95.839 0 287.515-52.71 287.515-148.548v-67.094z" />
<glyph unicode="&#xe931;" glyph-name="gongs" d="M512 604.444v176.356h-440.888v-793.6h881.778v617.244h-440.888zM159.288 163.556h88.178v-88.178h-88.178v88.178zM159.288 339.912h88.178v-88.178h-88.178v88.178zM159.288 516.266h88.178v-88.178h-88.178v88.178zM159.288 692.622h88.178v-88.178h-88.178v88.178zM335.644 163.556h88.178v-88.178h-88.178v88.178zM335.644 339.912h88.178v-88.178h-88.178v88.178zM335.644 516.266h88.178v-88.178h-88.178v88.178zM335.644 692.622h88.178v-88.178h-88.178v88.178zM864.712 75.378h-352.712v88.178h88.178v88.178h-88.178v88.178h88.178v88.178h-88.178v88.178h352.712v-440.888zM688.356 339.912h88.178v88.178h-88.178v-88.178zM688.356 163.556h88.178v88.178h-88.178v-88.178z" />
<glyph unicode="&#xe932;" glyph-name="renyuan" d="M163.556 832c-55.253 0-99.556-44.8-99.556-99.58v-696.864c0-54.756 44.303-99.556 99.556-99.556h696.888c54.756 0 99.556 44.8 99.556 99.556v696.864c0 54.78-44.8 99.58-99.556 99.58h-696.888zM512 682.667c82.632 0 149.333-66.728 149.333-149.333 0-82.656-66.703-149.333-149.333-149.333s-149.333 66.677-149.333 149.333c0 82.607 66.703 149.333 149.333 149.333v0zM810.667 85.333h-597.333v49.752c0 99.58 199.112 154.336 298.667 154.336s298.667-54.756 298.667-154.336v-49.752z" />
<glyph unicode="&#xe933;" glyph-name="riqi" d="M792 776v56h-112v-56h-336v56h-112v-56h-56c-56 0-111.503-34.16-112-112v-616c0-66.64 44.303-112 112-112h672c67.2 0 112 45.36 112 112v616c0 77.84-56 112-112 112h-56zM848 42.91h-672v509.090h672v-509.090zM736 440h-112v-112h112v112zM568 440h-112v-112h112v112zM400 440h-112v-112h112v112zM568 272h-112v-112h112v112zM400 272h-112v-112h112v112z" />
<glyph unicode="&#xe934;" glyph-name="delete" d="M512-64c-247.424 0-448 200.576-448 448s200.576 448 448 448c247.424 0 448-200.576 448-448s-200.576-448-448-448zM704.001 537.325l-38.675 38.675-153.325-153.325-153.325 153.325-38.675-38.675 153.325-153.325-153.325-153.325 38.675-38.675 153.325 153.325 153.325-153.325 38.675 38.675-153.325 153.325 153.325 153.325z" />
<glyph unicode="&#xe935;" glyph-name="delete2" d="M512 490.72l-320.114 320.114c-29.681 29.681-77.297 29.516-106.767 0.047-29.676-29.676-29.45-77.272 0.047-106.767l320.114-320.114-320.114-320.114c-29.495-29.495-29.723-77.091-0.047-106.767 29.469-29.469 77.087-29.635 106.767 0.047l320.114 320.114 320.114-320.114c29.681-29.681 77.297-29.516 106.767-0.047 29.676 29.676 29.45 77.272-0.047 106.767l-320.114 320.114 320.114 320.114c29.495 29.495 29.723 77.091 0.047 106.767-29.469 29.469-77.087 29.635-106.767-0.047l-320.114-320.114z" />
<glyph unicode="&#xe936;" glyph-name="time" d="M512-64c-247.433 0-448 200.615-448 448.014s200.567 447.986 448 447.986c247.406 0 448-200.587 448-447.986s-200.594-448.014-448-448.014v0zM512 736c-194.403 0-352-157.591-352-351.987s157.596-352.013 352-352.013c194.403 0 352 157.618 352 352.013s-157.595 351.987-352 351.987v0zM512.713 324.875c-23.188 0-42 18.812-42 41.999v199.641c0 23.187 18.812 41.999 42 41.999s42-18.812 42-41.999v-157.643h140c23.187 0 42-18.812 42-41.999s-18.811-41.999-42-41.999h-182z" />
<glyph unicode="&#xe937;" glyph-name="shoji" d="M665.601 831.999h-307.2c-63.744 0-115.199-54.575-115.199-122.182v-651.637c0-67.607 51.457-122.182 115.199-122.182h307.2c63.744 0 115.199 54.575 115.199 122.182v651.637c0 67.607-51.457 122.182-115.199 122.182v0zM435.201 58.181h153.601v-40.727h-153.601v40.727zM310.4 709.817h403.2v-570.182h-403.2v570.182z" />
<glyph unicode="&#xe938;" glyph-name="tianjin" d="M556.8 608h-89.6v-179.2h-179.2v-89.6h179.2v-179.2h89.6v179.2h179.2v89.6h-179.2v179.2zM512 832c-247.296 0-448-200.704-448-448s200.704-448 448-448c247.296 0 448 200.704 448 448s-200.704 448-448 448v0zM512 25.6c-197.568 0-358.4 160.832-358.4 358.4s160.832 358.4 358.4 358.4c197.568 0 358.4-160.832 358.4-358.4s-160.832-358.4-358.4-358.4v0z" />
<glyph unicode="&#xe939;" glyph-name="wenjian" d="M725.334 597.334h-213.334l-106.666 106.666h-213.334c-68.694 0-106.24-35.6-106.666-106.666v-426.666c0-53.334 37.974-106.666 106.666-106.666h640c68.694 0 106.666 53.334 106.666 106.666v320c0 44.4-53.334 106.666-106.666 106.666h-106.666zM512 277.334h-106.666v-106.666h-106.666v106.666h-106.666v106.666h106.666v106.666h106.666v-106.666h106.666v-106.666z" />
<glyph unicode="&#xe93a;" glyph-name="xiala1" d="M512 160l-448 448h896z" />
<glyph unicode="&#xe93b;" glyph-name="xiala3" d="M675.007 384l-416.894-378.978c-17.404-15.821-17.404-41.838 0-57.658 17.404-15.902 46.023-15.902 63.427 0 0 0 448.562 407.684 448.652 407.765 8.791 7.911 13.098 18.432 13.098 28.871s-4.306 20.959-13.098 28.871c-0.090 0.081-448.652 407.765-448.652 407.765-17.404 15.902-46.023 15.902-63.427 0-17.404-15.821-17.404-41.754 0-57.658l416.894-378.978z" />
<glyph unicode="&#xe93c;" glyph-name="fwb-yanse" d="M419.266 316.802h185.466l-92.734 247.288-92.734-247.288zM870.39 831.986h-716.778c-49.278 0-89.598-40.318-89.598-89.598v-716.778c0-49.278 40.318-89.598 89.598-89.598h716.778c49.278 0 89.598 40.318 89.598 89.598v716.778c0 49.278-40.318 89.598-89.598 89.598v0zM688.954 92.808l-51.070 134.396h-252.664l-50.174-134.396h-93.63l228.922 582.382h83.326l228.922-582.382h-93.63z" />
<glyph unicode="&#xe93d;" glyph-name="mail" d="M857.6 729.6h-691.2c-47.52 0-85.968-38.88-85.968-86.4l-0.432-518.4c0-47.52 38.88-86.4 86.4-86.4h691.2c47.52 0 86.4 38.88 86.4 86.4v518.4c0 47.52-38.88 86.4-86.4 86.4v0zM857.6 124.8h-691.2v432l345.6-216 345.6 216v-432zM512 427.2l-345.6 216h691.2l-345.6-216z" />
<glyph unicode="&#xe93e;" glyph-name="jiaqi" d="M121.807 542.967h780.387v138.828c0 31.919-26.001 57.938-57.953 57.938h-664.481c-31.883 0-57.953-26.033-57.953-57.938v-138.828zM121.807 485.161v-433.418c0-31.919 26.001-57.938 57.953-57.938h664.481c31.883 0 57.953 26.033 57.953 57.938v433.418h-780.387zM739.878 797.539h104.363c63.931 0 115.759-51.953 115.759-115.744v-630.051c0-63.923-52.045-115.744-115.759-115.744h-664.481c-63.931 0-115.759 51.953-115.759 115.744v630.051c0 63.923 52.045 115.744 115.759 115.744h133.266c0.508 19.119 16.103 34.461 35.56 34.461 19.324 0 35.049-15.335 35.561-34.461h284.612c0.509 19.119 16.103 34.461 35.561 34.461 19.324 0 35.049-15.335 35.56-34.461zM280.774 282.839c23.945 0 43.354 19.411 43.354 43.354s-19.411 43.354-43.354 43.354c-23.945 0-43.354-19.411-43.354-43.354s19.411-43.354 43.354-43.354zM280.774 253.935c-39.907 0-72.259 32.351-72.259 72.259s32.351 72.259 72.259 72.259c39.907 0 72.259-32.351 72.259-72.259s-32.351-72.259-72.259-72.259zM512 282.839c23.945 0 43.354 19.411 43.354 43.354s-19.411 43.354-43.354 43.354c-23.945 0-43.354-19.411-43.354-43.354s19.411-43.354 43.354-43.354zM512 253.935c-39.907 0-72.259 32.351-72.259 72.259s32.351 72.259 72.259 72.259c39.907 0 72.259-32.351 72.259-72.259s-32.351-72.259-72.259-72.259zM280.774 109.42c23.945 0 43.354 19.411 43.354 43.354s-19.411 43.354-43.354 43.354c-23.945 0-43.354-19.411-43.354-43.354s19.411-43.354 43.354-43.354zM280.774 80.515c-39.907 0-72.259 32.351-72.259 72.259s32.351 72.259 72.259 72.259c39.907 0 72.259-32.351 72.259-72.259s-32.351-72.259-72.259-72.259zM512 109.42c23.945 0 43.354 19.411 43.354 43.354s-19.411 43.354-43.354 43.354c-23.945 0-43.354-19.411-43.354-43.354s19.411-43.354 43.354-43.354zM512 80.515c-39.907 0-72.259 32.351-72.259 72.259s32.351 72.259 72.259 72.259c39.907 0 72.259-32.351 72.259-72.259s-32.351-72.259-72.259-72.259zM743.226 282.839c23.945 0 43.354 19.411 43.354 43.354s-19.411 43.354-43.354 43.354c-23.945 0-43.354-19.411-43.354-43.354s19.411-43.354 43.354-43.354zM743.226 253.935c-39.907 0-72.259 32.351-72.259 72.259s32.351 72.259 72.259 72.259c39.907 0 72.259-32.351 72.259-72.259s-32.351-72.259-72.259-72.259zM743.226 109.42c23.945 0 43.354 19.411 43.354 43.354s-19.411 43.354-43.354 43.354c-23.945 0-43.354-19.411-43.354-43.354s19.411-43.354 43.354-43.354zM743.226 80.515c-39.907 0-72.259 32.351-72.259 72.259s32.351 72.259 72.259 72.259c39.907 0 72.259-32.351 72.259-72.259s-32.351-72.259-72.259-72.259z" />
<glyph unicode="&#xe93f;" glyph-name="bangzhu" d="M882.087 384c0 204.064-166.023 370.087-370.087 370.087s-370.087-166.023-370.087-370.087c0-204.064 166.023-370.087 370.087-370.087s370.087 166.023 370.087 370.087zM960 384c0-247.023-200.977-448-448-448s-448 200.977-448 448c0 247.023 200.977 448 448 448s448-200.977 448-448zM509.468 227.978c-12.856 0-25.321-5.258-34.476-14.316-9.057-9.057-14.218-21.622-14.218-34.378 0-12.856 5.161-25.418 14.218-34.476 9.155-9.057 21.622-14.316 34.476-14.316s25.418 5.258 34.476 14.316c9.057 9.057 14.218 21.622 14.218 34.476 0 12.759-5.161 25.321-14.218 34.378s-21.622 14.316-34.476 14.316zM657.327 583.702c30.794-34.729 45.354-83.201 39.375-132.997-11.238-93.514-79.626-126.833-140.477-126.833-2.541 0-5.27-0.068-5.27-0.165v-23.647c0-21.513-17.443-38.956-38.956-38.956s-38.956 17.443-38.956 38.956v31.389c0 32.091 13.381 70.336 83.181 70.336 37.661 0 57.841 19.585 62.487 58.211 1.568 13.098 2.776 46.348-19.995 72.001-18.504 20.861-48.531 31.437-89.249 31.437-88.138 0-90.682-56.984-90.682-63.48 0-21.513-17.443-38.956-38.956-38.956s-38.956 17.443-38.956 38.956c0 39.327 30.289 141.393 168.595 141.393 79.676 0 124.524-31.351 147.86-57.645z" />
<glyph unicode="&#xe940;" glyph-name="rile" d="M757.858 694.252v-49.491c0-22.63-18.346-40.977-40.977-40.977s-40.977 18.346-40.977 40.977v49.491h-327.813v-49.491c0-22.63-18.346-40.977-40.977-40.977s-40.977 18.346-40.977 40.977v49.491h-122.93v-152.199h737.579v152.199h-122.93zM757.858 776.205h142.34c34.884 0 62.543-28.706 62.543-63.359v-716.23c0-34.653-27.66-63.359-62.543-63.359h-776.399c-34.884 0-62.543 28.706-62.543 63.359v716.23c0 34.653 27.66 63.359 62.543 63.359h142.34v17.561c0 22.63 18.346 40.977 40.977 40.977s40.977-18.346 40.977-40.977v-17.561h327.813v17.561c0 22.63 18.346 40.977 40.977 40.977s40.977-18.346 40.977-40.977v-17.561zM143.21 460.099v-444.889h737.579v444.889h-737.579zM238.822 309.497c0 20.573 16.951 37.251 37.553 37.251h471.248c20.74 0 37.553-17.279 37.553-37.251 0-20.573-16.951-37.251-37.553-37.251h-471.248c-20.74 0-37.553 17.28-37.553 37.251zM238.822 160.491c0 20.573 16.951 37.251 37.553 37.251h471.248c20.74 0 37.553-17.279 37.553-37.251 0-20.573-16.951-37.251-37.553-37.251h-471.248c-20.74 0-37.553 17.28-37.553 37.251z" />
<glyph unicode="&#xe941;" glyph-name="fwb-xiahuaxian" d="M64.014-63.986h895.974v127.996h-895.974v-127.996zM352.005 268.803h319.99l57.599-140.796h134.396l-303.991 703.979h-95.996l-303.991-703.979h134.396l57.599 140.796zM512 705.271l119.677-321.271h-239.352l119.677 321.271z" />
<glyph unicode="&#xe942;" glyph-name="fwb-yulan" d="M51.211 384c72.459-168.565 251.345-287.993 460.779-287.993 209.455 0 388.319 119.428 460.8 287.993-72.481 168.585-251.345 287.993-460.8 287.993-209.433 0-388.319-119.408-460.779-287.993zM339.204 383.991c0 95.395 77.409 172.805 172.787 172.805 95.395 0 172.805-77.409 172.805-172.805 0-95.378-77.409-172.787-172.805-172.787-95.378 0-172.787 77.409-172.787 172.787zM512 499.197c-63.74 0-115.197-51.457-115.197-115.197s51.457-115.197 115.197-115.197c63.74 0 115.197 51.457 115.197 115.197s-51.457 115.197-115.197 115.197v0z" />
<glyph unicode="&#xe943;" glyph-name="chengjiu" d="M827.075 501.468c37.289 36.618 51.283 92.818 55.074 138.533h-109.704v-169.042c19.29 5.257 39.507 15.662 54.63 30.51v0zM695.282 694.858h-366.517v-237.165c0-132.178 94.214-179.274 183.258-179.274s183.258 47.094 183.258 179.274v237.165zM196.935 501.313c15.182-14.849 35.379-25.225 54.668-30.437v169.124h-109.55c3.385-36.571 15.423-100.060 54.882-138.689v0zM876.158 456.769c-28.954-28.434-64.989-45.806-107.13-51.758-21.124-122.185-112.338-184.961-218.425-197.385v-134.482h82.784c21.296 0 38.572-16.374 38.572-36.571s-17.274-36.571-38.572-36.571h-242.355c-21.306 0-38.581 16.374-38.581 36.571s17.274 36.571 38.581 36.571h82.409v134.482c-106.098 12.426-197.099 75.301-218.232 197.458-42.304 5.898-78.33 23.159-107.37 51.685-78.782 77.358-74.79 210.249-74.586 215.862 0.636 17.215 15.558 31.369 33.738 31.369h144.61v27.428c0 20.197 16.522 36.571 37.829 36.571h445.559c21.296 0 37.452-16.374 37.452-36.571v-27.428h144.601c18.19 0 33.102-14.143 33.749-31.369 0.202-5.613 4.147-138.505-74.634-215.862v0z" />
<glyph unicode="&#xe944;" glyph-name="home-gonggao" d="M834.971 66.251c-9.043-10.14-21.572-15.307-34.169-15.307-10.826 0-21.697 3.817-30.419 11.591-18.863 16.804-20.52 45.716-3.715 64.566 223.615 250.845 9.168 499.7-0.067 510.171-16.69 18.908-14.952 47.797 3.909 64.52 18.885 16.713 47.681 15.067 64.463-3.75 2.812-3.156 278.383-319.514 0-631.792v0zM697.185 188.592c-9.043-10.128-21.572-15.307-34.169-15.307-10.826 0-21.697 3.817-30.419 11.591-18.863 16.815-20.52 45.716-3.715 64.577 113.905 127.771 11.877 251.805-0.137 265.533-16.574 18.942-14.793 47.807 4.081 64.474 18.896 16.667 47.613 14.998 64.36-3.772 59.673-66.944 136.482-233.995 0-387.098v0zM456.504 58.638l-158.763 161.175c-8.585 8.642-19.148 13.718-31.334 13.718h-84.262v297.221h84.262c12.186 0 22.749 5.076 31.334 13.729l158.763 161.175v-647.019zM520.784 858.898c-17.159 7.054-36.273 2.858-49.328-10.277l-224.095-226.415h-111.104c-25.252 0-45.568-20.038-45.568-45.292v-389.545c0-25.252 20.314-45.292 45.568-45.292h111.104l224.666-226.404c8.757-8.825 20.508-13.626 32.466-13.626 5.865 0 10.643 1.075 16.29 3.397 17.125 7.065 27.173 23.698 27.173 42.228v868.942c0 18.531-10.049 35.221-27.173 42.285v0z" />
<glyph unicode="&#xe945;" glyph-name="jilt" d="M337.122 260.922h349.745c21.749 0 39.385 17.634 39.385 39.385s-17.634 39.385-39.385 39.385h-349.745c-21.749 0-39.385-17.634-39.385-39.385s17.634-39.385 39.385-39.385zM479.538 684.308h64.915c21.749 0 39.385 17.634 39.385 39.385s-17.634 39.385-39.385 39.385h-64.915c-21.749 0-39.385-17.634-39.385-39.385s17.634-39.385 39.385-39.385zM886.155 763.076h-82.205c-21.749 0-39.385-17.634-39.385-39.385s17.634-39.385 39.385-39.385h42.82v-669.539h-669.539v669.539h42.811c21.749 0 39.385 17.634 39.385 39.385s-17.634 39.385-39.385 39.385h-82.196c-21.749 0-39.385-21.199-39.385-42.949v-744.743c0-21.749 17.634-39.385 39.385-39.385h748.308c21.749 0 39.385 17.634 39.385 39.385v744.743c0 21.749-17.634 42.949-39.385 42.949zM337.122 438.153h349.745c21.749 0 39.385 17.634 39.385 39.385s-17.634 39.385-39.385 39.385h-349.745c-21.749 0-39.385-17.634-39.385-39.385s17.634-39.385 39.385-39.385zM669.538 607.605c27.185 0 49.231 22.045 49.231 49.231v125.933c0 27.185-22.045 49.231-49.231 49.231s-49.231-22.045-49.231-49.231v-125.933c0-27.185 22.045-49.231 49.231-49.231zM305.231 656.837v125.933c0 27.185 22.045 49.231 49.231 49.231s49.231-22.045 49.231-49.231v-125.933c0-27.185-22.045-49.231-49.231-49.231s-49.231 22.045-49.231 49.231z" />
<glyph unicode="&#xe946;" glyph-name="shezhi" d="M476.637 5.948c8.863-0.575 19.274-1.023 30.045-1.023h5.309c10.858 0 21.289 0.448 30.143 1.023l9.107 64.22c2.006 14.121 12.514 25.556 26.422 28.749 30.22 6.924 59.030 18.592 85.617 34.652 7.84 4.733 17.239 6.136 26.12 3.944 5.093-1.267 9.759-3.652 13.723-6.944l51.219-38.879c6.661 5.853 14.336 12.895 21.952 20.511l3.749 3.749c7.655 7.655 14.725 15.359 20.599 22.049l-38.82 51.715c-8.561 11.415-9.213 26.929-1.627 39.014 16.128 25.683 28.068 53.507 35.51 82.744 2.523 14.619 14.171 26.217 29.208 28.273l65.146 8.921c0.565 8.854 1.023 19.255 1.023 30.016v5.308c0 10.829-0.458 21.28-1.032 30.172l-64.005 9.116c-14.122 2.007-25.536 12.506-28.731 26.394-6.867 29.88-18.368 58.367-34.184 84.681-1.471 2.269-2.688 4.724-3.604 7.333-3.847 10.927-1.977 23.052 5.034 32.276l39.755 52.377c-5.863 6.671-12.895 14.336-20.511 21.952l-3.749 3.749c-7.675 7.684-15.379 14.735-22.040 20.599l-51.85-38.967c-12.252-9.213-28.945-9.155-41.051-0.273-25.77 15.836-53.663 27.523-82.948 34.711-13.723 3.38-23.997 14.793-25.916 28.799l-8.911 65.146c-8.863 0.575-19.255 1.023-30.026 1.023h-5.299c-10.819 0-21.27-0.457-30.152-1.032l-9.107-64.211c-2.152-15.193-14.024-26.939-28.867-29.226-29.324-6.983-57.305-18.445-83.181-34.107-7.976-4.831-17.56-6.213-26.568-3.846-5.046 1.315-9.652 3.74-13.547 7.041l-50.925 38.625c-6.661-5.863-14.336-12.895-21.952-20.52l-3.749-3.749c-7.684-7.675-14.746-15.368-20.599-22.040l38.967-51.85c8.453-11.238 9.222-26.481 1.957-38.508-0.613-1.023-1.276-1.996-1.977-2.932-15.739-25.633-27.357-53.389-34.545-82.55-3.38-13.713-14.784-23.977-28.779-25.896l-65.037-8.931c-0.575-8.863-1.023-19.264-1.023-30.036v-5.299c0-10.82 0.458-21.26 1.023-30.152l64.211-9.107c15.212-2.152 27.163-14.112 29.295-29.324 0.059-0.428 0.118-0.847 0.157-1.276 7.011-28.749 18.348-56.175 33.717-81.575 5.24-8.668 6.408-19.187 3.195-28.778-1.412-4.217-3.604-8.055-6.408-11.365l-38.44-50.751c5.862-6.671 12.904-14.345 20.52-21.972l3.749-3.749c7.683-7.684 15.379-14.735 22.040-20.599l51.851 38.967c13.080 9.836 30.873 8.96 42.881-1.149 25.235-15.27 52.484-26.568 81.068-33.6 13.702-3.369 23.968-14.764 25.896-28.749l8.96-64.883zM511.991-63.999h-5.309c-33.833 0-63.567 3.759-64.813 3.914-15.436 1.977-27.64 14.053-29.763 29.471l-9.612 69.684c-21.386 6.779-42.053 15.544-61.824 26.199l-55.084-41.391c-12.408-9.32-29.509-9.204-41.782 0.283-0.993 0.769-24.669 19.137-48.598 43.067l-3.749 3.749c-23.929 23.919-42.287 47.594-43.067 48.599-9.515 12.311-9.603 29.471-0.204 41.888l42.54 56.156c-10.324 19.907-18.739 40.7-25.176 62.145l-68.291 9.681c-15.359 2.181-27.366 14.356-29.344 29.743-0.156 1.247-3.914 30.989-3.914 64.824v5.299c0 33.844 3.759 63.577 3.914 64.824 1.987 15.447 14.074 27.649 29.501 29.763l69.858 9.593c6.769 21.329 15.515 41.937 26.141 61.659l-41.537 55.26c-9.331 12.408-9.213 29.509 0.283 41.791 0.769 0.993 19.137 24.669 43.057 48.599l3.749 3.749c23.929 23.919 47.605 42.287 48.608 43.057 12.31 9.526 29.491 9.612 41.897 0.195l56.292-42.687c19.848 10.295 40.573 18.689 61.971 25.117l9.709 68.505c2.181 15.368 14.356 27.377 29.743 29.353 1.247 0.156 30.98 3.914 64.824 3.914h5.299c33.844 0 63.578-3.759 64.824-3.914 15.446-1.987 27.649-14.083 29.763-29.509l9.583-69.956c21.289-6.759 41.897-15.476 61.609-26.081l55.319 41.587c12.408 9.331 29.5 9.213 41.781-0.283 1.003-0.769 24.679-19.137 48.608-43.067l3.749-3.749c23.929-23.929 42.287-47.615 43.057-48.608 9.526-12.32 9.603-29.5 0.185-41.908l-42.657-56.185c10.334-19.868 18.757-40.612 25.206-62.028l68.417-9.75c15.359-2.181 27.357-14.356 29.324-29.733 0.165-1.256 3.926-30.989 3.926-64.824v-5.308c0-33.833-3.759-63.567-3.926-64.813-1.977-15.447-14.073-27.649-29.509-29.772l-69.752-9.544c-6.769-21.339-15.515-41.985-26.159-61.727l41.469-55.251c9.32-12.397 9.194-29.5-0.291-41.77-0.769-0.993-19.128-24.669-43.057-48.599l-3.749-3.749c-23.93-23.919-47.606-42.297-48.608-43.067-12.311-9.526-29.5-9.603-41.908-0.175l-56.321 42.745c-19.839-10.275-40.534-18.66-61.912-25.079l-9.729-68.621c-2.181-15.359-14.356-27.367-29.743-29.344-1.247-0.156-30.98-3.914-64.813-3.914v0zM512.009 502.682c-65.535 0-118.847-53.312-118.847-118.847 0-65.526 53.312-118.826 118.847-118.826 65.515 0 118.817 53.303 118.817 118.826 0 65.535-53.302 118.847-118.817 118.847v0zM512.009 196.085c-103.537 0-187.771 84.224-187.771 187.75 0 103.537 84.233 187.771 187.771 187.771 103.518 0 187.742-84.233 187.742-187.771 0-103.526-84.224-187.75-187.742-187.75v0z" />
<glyph unicode="&#xe947;" glyph-name="ximxi" d="M517.663 153.476c-2.015 0-3.999-0.134-5.943-0.415-1.942 0.281-3.927 0.415-5.943 0.415h-245.591c38.815 72.727 38.805 185.86 38.805 291.741 0 169.155 73.444 258.909 206.786 258.909h11.886c133.351 0 206.786-89.756 206.786-258.909 0-105.881 0-219.013 38.805-291.741h-245.591zM534.817 29.944c-4.187-4.395-10.805-10.732-24.967-10.732-13.755 0-19.897 6.681-23.709 10.815-8.145 8.831-12.81 19.553-15.273 40.332h34.909c2.015 0 3.999 0.146 5.943 0.427 1.942-0.281 3.927-0.427 5.943-0.427h33.891c-2.94-20.78-8.042-31.304-16.737-40.415v0zM809.821 443.555c0 199.253-90.307 324.469-246.152 343.035v3.8c0 22.981-18.586 41.611-41.559 41.611-22.961 0-41.559-18.628-41.559-41.611-166.234-16.069-262.494-142.564-262.494-346.834 0-254.121-30.348-295.128-100.281-295.128-22.961 0-42.141-16.051-42.141-39.034s18.067-39.034 41.028-39.034h270.224c3.211-31.17 12.562-69.487 37.839-97.101 21.548-23.532 50.981-37.258 85.123-37.258 33.912 0 63.45 14.213 85.455 37.455 26.214 27.71 36.614 65.736 40.623 96.904h270.848c22.971 0 41.589 16.051 41.589 39.034s-18.618 39.034-41.589 39.034c-69.923 0-96.957 41.008-96.957 295.128z" />
<glyph unicode="&#xe948;" glyph-name="user1" horiz-adv-x="878" d="M643.808 249.796l-25.38 6.369 0.080-0.088-56.418-117.050c-3.070-6.387-9.317-10.645-16.373-11.181-7.064-0.537-13.882 2.735-17.886 8.577l-45.245 66.149c-2.411 3.52-6.273 5.772-10.53 6.14-4.266 0.352-8.455-1.232-11.42-4.302l-11.067-11.446c-2.666-2.779-6.361-4.354-10.213-4.354-3.862 0-7.557 1.575-10.231 4.337l-11.067 11.464c-2.964 3.080-7.161 4.655-11.42 4.302-4.258-0.37-8.129-2.622-10.54-6.14l-45.245-66.149c-3.994-5.841-10.812-9.114-17.876-8.577-7.056 0.537-13.301 4.794-16.381 11.181l-56.41 117.050 0.070 0.088-25.732-6.369c-105.772-26.481-180.287-121.52-180.287-230.547v-36.632c0-28.205 23.506-51.060 51.703-51.060h666.814c28.179 0 51.009 22.855 51.009 51.060v36.632c0 109.027-74.181 204.066-179.952 230.547zM202.68 565.787c-19.6-9.061-34.283-30.060-30.361-77.673 4.153-50.453 29.525-73.195 57.061-79.090 39.007-95.505 116.33-174.331 207.877-174.331 91.318 0 168.499 78.447 207.576 173.645 28.969 4.575 56.497 27.026 60.844 79.775 3.299 40.019-6.546 61.24-21.404 72.377 33.475 172.166-85.618 206.626-85.618 206.626s-111.227 133.326-307.357 29.164c-38.454-20.428-77.533-62.894-103.361-115.115-3.669-7.426-2.753-16.293 2.349-22.812 5.121-6.518 13.522-9.536 21.625-7.725-22.24-48.562-9.132-81.887-9.228-84.844zM247.142 567.669c148.519 0.687 238.192 62.585 288.251 116.672 52.45-52.283 78.624-118.924 91.432-166.414-10.029-113.373-90.798-238.843-189.568-238.843-105.605 0-190.634 143.4-190.634 262.138 0 9.202 0.175 17.992 0.52 26.445z" />
<glyph unicode="&#xe949;" glyph-name="user2" horiz-adv-x="878" d="M656.797 408.77c28.096 5.997 53.946 29.176 58.195 80.638 3.994 48.554-10.993 69.951-30.958 79.206-0.509 13.776-2.089 26.762-2.756 39.151-9 167.438-104.37 231.78-220.892 216.327-17.017-2.256-33.813-2.862-50.785-0.132-68.099 11.011-134.082-44.165-173.786-94.3-47.378-59.828-29.931-154.9-30.099-159.51-21.748-8.323-38.817-29.308-34.568-80.742 4.434-53.804 32.495-76.678 62.023-81.349 39.862-97.074 118.56-177.061 211.681-177.061 93.342 0 172.189 80.374 211.946 177.772zM444.851 276.258c-105.363 0-190.618 139.983-194.254 259.411 3.626 18.641 9.343 34.981 15.681 48.826 13.477 29.448 38.246 52.242 68.723 63.209 7.35 2.652 15.558-0.052 19.879-6.558 4.329-6.498 3.652-15.12-1.624-20.879-0.571-0.623-1.15-1.246-1.73-1.861-3.994-4.285-4.804-10.641-2.001-15.795s8.587-7.928 14.346-6.911c42.655 7.552 108.69 24.805 164.716 63.489 12.88 8.894 28.843 12.151 44.191 9.044 15.348-3.135 28.791-12.353 37.166-25.576 0.833-1.326 1.669-2.66 2.512-4.038 17.437-28.589 26.77-61.532 26.77-95.063v0.018c0-121.079-86.714-267.312-194.376-267.312zM644.405 246.071l-23.795 6.356 0.843-0.088-55.921-116.821c-3.065-6.374-9.104-10.625-16.147-11.159-7.059-0.527-13.768 2.73-17.754 8.569l-45.113 66.009c-2.406 3.511-6.242 5.759-10.484 6.128-4.259 0.351-8.429-1.23-11.388-4.293l-11.037-11.424c-2.66-2.774-6.348-4.347-10.194-4.347-3.854 0-7.542 1.572-10.202 4.329l-11.054 11.44c-2.959 3.073-7.139 4.645-11.396 4.293-4.249-0.369-8.105-2.616-10.518-6.128l-45.149-66.009c-3.994-5.839-10.799-9.096-17.85-8.569-7.041 0.535-13.275 4.785-16.34 11.159l-56.308 116.821 0.078 0.088-26.684-6.356c-105.565-26.429-180.933-121.282-180.933-230.094v-37.527c0-28.14 25.454-49.994 53.594-49.994h266.884l30.784 138.236c0 0-25.62 5.777-28.913 29.923s8.78 51.346 24.146 51.346h75.729c15.366 0 27.439-27.439 24.146-51.583s-28.913-29.686-28.913-29.686l30.784-138.236h270.87c28.123 0 44.77 21.854 44.77 49.994v37.527c0 108.812-70.971 203.665-176.534 230.094z" />
<glyph unicode="&#xe94a;" glyph-name="user3" horiz-adv-x="951" d="M260.59 419.079c39.97-98.089 119.356-178.978 213.361-178.978h3.11c93.998 0 173.373 80.888 213.345 178.978 27.869 6.403 53.28 29.719 57.492 80.836 3.961 48.076-10.573 69.665-30.162 79.203-7.819 217.35-119.894 248.128-240.676 248.128h-3.11c-120.79 0-232.874-30.78-240.684-248.128-19.599-9.538-34.123-31.117-30.162-79.195 4.222-51.117 29.623-74.443 57.485-80.844zM475.455 733.432h0.095c185.301 46.46 196.769-129.963 195.753-199.914-1.095-74.981-40.596-153.862-92.434-202.677 0.278 2.971 0.451 5.986 0.451 9.035 0 54.783-46.486 99.94-103.824 99.94s-103.824-45.157-103.824-99.94c0-3.049 0.173-6.063 0.451-9.035-51.821 48.815-91.33 127.696-92.434 202.677-1.017 69.951 10.46 246.374 195.761 199.914zM475.681 285.476h-0.366c-32.152 0.121-58.092 24.768-58.092 54.401 0 29.693 26.053 54.401 58.275 54.401 32.23 0 58.293-24.706 58.293-54.401 0-29.633-25.958-54.278-58.11-54.401zM550.057 203.467l-45.33-13.152c-0.695-0.183-1.381-0.348-2.094-0.461-7.341 6.437-16.863 10.72-27.313 10.72-10.468 0-19.99-4.283-27.313-10.72-0.695 0.113-1.407 0.278-2.094 0.461l-45.157 13.152c-13.535 3.874-26.375-6.29-26.375-20.381v-51.378c0-14.108 12.875-24.273 26.435-20.346l47.172 13.744c7.341-6.532 16.853-10.589 27.364-10.885 10.52 0.296 20.060 4.353 27.391 10.885l47.268-13.744c13.553-3.927 26.61 6.238 26.61 20.346v51.378c0 14.092-13.041 24.255-26.566 20.381zM678.707 239.233l-17.123 4.214-151.742-246.253c-7.931-12.84-20.884-20.562-34.22-20.562-13.352 0-26.288 7.722-34.22 20.562l-151.735 246.253-17.262-4.214c-108.496-27.174-185.007-124.672-185.007-236.54v-9.79c0-28.929 24.204-52.15 53.132-52.15h670.17c28.92 0 52.897 23.222 52.897 52.15v9.79c0 111.868-76.38 209.366-184.894 236.54z" />
<glyph unicode="&#xe94b;" glyph-name="home" d="M820.767 329.323c0 1.072 0 2.144-0.536 3.217l-308.231 254.089-308.231-254.089c0-1.072-0.536-2.145-0.536-3.217v-257.306c0-18.761 15.545-34.308 34.308-34.308h205.844v205.844h137.23v-205.844h205.844c18.761 0 34.308 15.545 34.308 34.308v257.306zM940.307 366.31c5.896 6.969 4.824 18.226-2.144 24.123l-117.396 97.562v218.71c0 9.648-7.505 17.154-17.154 17.154h-102.922c-9.648 0-17.154-7.505-17.154-17.154v-104.531l-130.797 109.356c-22.514 18.761-58.966 18.761-81.481 0l-385.423-321.096c-6.969-5.896-8.041-17.154-2.144-24.123l33.236-39.667c2.68-3.217 6.969-5.361 11.258-5.896 4.824-0.536 9.113 1.072 12.865 3.752l370.949 309.303 370.949-309.303c3.217-2.68 6.969-3.752 11.258-3.752h1.607c4.289 0.536 8.576 2.68 11.258 5.896l33.236 39.667z" />
<glyph unicode="&#xe94c;" glyph-name="xuexixingdong" d="M64 767.563v-767.123c0-35.641 28.849-64.438 64.438-64.438h767.123c35.641 0 64.438 28.849 64.438 64.438v767.123c0 35.641-28.849 64.438-64.438 64.438h-767.123c-35.641 0-64.438-28.849-64.438-64.438zM243.2 174.934v108.715l302.816 302.816c8.802 8.802 22.448 8.802 31.25 0l77.904-77.904c8.802-8.802 8.802-22.448 0-31.25l-303.257-302.377h-108.715zM771.369 174.934h-330.105l88.027 88.028h242.078v-88.028z" />
<glyph unicode="&#xe94d;" glyph-name="jingled" horiz-adv-x="896" d="M221.2 832v-746.667h604.8v746.667h-604.8zM672.933 683.133v-75.6h-298.667v75.6h298.667zM672.933 533.8v-75.6h-298.667v75.6h298.667zM597.8 384.467v-75.6h-224v75.6h224zM145.6 10.667v672h-75.6v-746.667h604.8v74.667h-529.2z" />
<glyph unicode="&#xe94e;" glyph-name="tuition" horiz-adv-x="832" d="M499.191 799.958h-332.767c-45.756 0-82.775-37.437-82.775-83.191l-0.416-665.534c0-45.756 37.021-83.191 82.775-83.191h499.568c45.756 0 83.191 37.437 83.191 83.191v499.152l-249.576 249.576zM249.615 217.615h332.767v-83.191h-332.767v83.191zM249.615 384h332.767v-83.191h-332.767v83.191zM457.597 508.788v228.778l228.778-228.778h-228.778z" />
<glyph unicode="&#xe94f;" glyph-name="xuexiditu" d="M863.717 699.305c-43.379 13.794-91.055 19.707-136.779 19.707-76.206 0-158.273-15.765-214.938-59.12-56.665 43.355-138.732 59.12-214.938 59.12s-158.273-15.765-214.938-59.12v-577.403c0-9.854 9.77-19.707 19.541-19.707 3.909 0 5.862 1.971 9.77 1.971 52.758 25.619 128.964 43.355 185.629 43.355 76.206 0 158.273-15.765 214.938-59.12 52.758 33.501 148.503 59.12 214.938 59.12 64.482 0 130.917-11.825 185.629-41.384 3.909-1.971 5.862-1.971 9.77-1.971 9.77 0 19.541 9.854 19.541 19.707v575.431c-23.447 17.736-48.85 29.56-78.159 39.413v0zM863.717 167.228c-42.988 13.794-89.883 19.707-136.779 19.707-66.435 0-162.182-25.619-214.938-59.12v453.251c52.758 33.501 148.503 59.12 214.938 59.12 46.896 0 93.791-5.911 136.779-19.707v-453.251z" />
<glyph unicode="&#xe950;" glyph-name="xviujia" horiz-adv-x="832" d="M416-63.972c0 0-355.742 352.678-355.742 545.966s159.272 349.978 355.742 349.978c196.471 0 355.742-156.69 355.742-349.978s-355.742-545.966-355.742-545.966zM416 384c70.729 0 128.068 56.409 128.068 125.992s-57.337 125.992-128.068 125.992c-70.729 0-128.068-56.409-128.068-125.992s57.337-125.992 128.068-125.992z" />
<glyph unicode="&#xe951;" glyph-name="jiaban" horiz-adv-x="960" d="M439.105 384.073v130.688h74.486v-130.688h130.348v-74.679h-130.348v-130.688h-74.486v130.688h-130.348v74.679h130.348zM476.347-64c215.969 0 391.045 175.533 391.045 392.063s-175.077 392.063-391.045 392.063c-215.969 0-391.045-175.533-391.045-392.063s175.077-392.063 391.045-392.063zM681.229 832l193.517-111.727-37.34-64.673-193.517 111.727 37.34 64.673zM278.771 832l-193.517-111.727 37.34-64.673 193.517 111.727-37.34 64.673z" />
<glyph unicode="&#xe952;" glyph-name="gongchu" d="M867.706 628.548h-177.852v88.926c0 24.454-9.782 46.686-26.234 62.693-16.006 16.452-38.238 26.234-62.693 26.234h-177.852c-48.91 0-88.926-40.016-88.926-88.926v-88.926h-177.852c-48.91 0-88.926-40.016-88.926-88.926v-489.094c0-48.91 40.016-88.926 88.926-88.926h711.41c48.91 0 88.926 40.016 88.926 88.926v489.094c0 48.91-40.016 88.926-88.926 88.926v0zM423.074 717.474h177.852v-88.926h-177.852v88.926zM467.536 117.222l-44.464 44.464 133.39 133.39-133.39 133.39 44.464 44.464 177.852-177.852-177.852-177.852z" />
<glyph unicode="&#xe953;" glyph-name="kaoqing" d="M678.842-2.208h-512.884c-48.035 0-86.511 38.929-86.511 86.511l0.412 605.573c0 47.58 38.064 86.511 86.099 86.511h43.254v55.615h86.511v-55.615h346.042v55.615h86.511v-55.615h43.254c47.58 0 86.511-38.929 86.511-86.511v-281.158l-86.511 14.418v136.975h-605.573v-475.807h460.976l51.905-86.511zM790.069 368.551c-85.186 0-154.483-67.91-154.483-151.393 0-113.546 154.483-281.158 154.483-281.158s154.483 167.615 154.483 281.158c0 83.483-69.296 151.393-154.483 151.393zM790.069 109.019c-36.855 0-69.296 18.384-88.277 46.5 0.441 28.549 58.924 44.336 88.277 44.336s87.834-15.788 88.277-44.336c-18.979-28.116-51.421-46.5-88.277-46.5zM790.069 325.295c24.276 0 44.137-19.466 44.137-43.254 0-24.006-19.862-43.254-44.137-43.254s-44.137 19.248-44.137 43.254c0 23.791 19.862 43.254 44.137 43.254zM233.931 374.73h92.689v86.511h-92.689v-86.511zM233.931 220.248h92.689v86.511h-92.689v-86.511zM481.103 374.73h92.689v86.511h-92.689v-86.511zM481.103 220.248h92.689v86.511h-92.689v-86.511zM357.517 374.73h92.689v86.511h-92.689v-86.511zM357.517 220.248h92.689v86.511h-92.689v-86.511zM604.689 374.73h92.689v86.511h-92.689v-86.511z" />
<glyph unicode="&#xe954;" glyph-name="xinchou" d="M960 767.563c0 35.588-28.797 64.438-64.438 64.438h-767.123c-35.588 0-64.438-28.797-64.438-64.438v-767.123c0-35.588 28.797-64.438 64.438-64.438h767.123c35.588 0 64.438 28.797 64.438 64.438v767.123zM735.953 462.981v0c23.793 21.275 39.963 50.898 43.91 84.268 10.145-9.897 20.055-20.839 29.743-32.697 15.205-18.611 28.824-38.347 40.769-58.078 7.224-11.933 12.383-21.401 15.301-27.24 11.057-22.134 2.079-49.041-20.055-60.098s-49.041-2.079-60.098 20.055c-1.891 3.786-5.909 11.159-11.795 20.881-9.905 16.36-21.189 32.714-33.507 47.789-1.422 1.742-2.846 3.449-4.267 5.12zM581.307 445.587c-12.397-17.492-26.742-38.613-43.404-63.861-85.771-129.969-128.879-176.925-199.621-176.925-47.236 0-89.332 28.828-129.912 75.174-21.855 24.962-38.625 49.6-48.671 66.829-12.465 21.373-5.243 48.804 16.132 61.269s48.804 5.243 61.269-16.132c1.687-2.891 5.236-8.573 10.343-16.076 8.596-12.63 18.172-25.253 28.342-36.869 24.962-28.511 48.453-44.597 62.498-44.597 24.549 0 60.439 39.090 124.838 136.675 22.452 34.023 41.181 61.859 57.55 84.527 11.319-29.886 32.991-54.684 60.637-70.017v0zM646.4 473.601c-49.484 0-89.6 40.116-89.6 89.6s40.116 89.6 89.6 89.6c49.484 0 89.6-40.116 89.6-89.6s-40.116-89.6-89.6-89.6zM221.606 488.385h-33.062v34.138h-43.008v22.579h43.008v16.666h-43.008v23.117h35.75l-49.997 87.36h31.45l39.782-73.651h1.344l39.782 73.651h35.482l-50.266-87.36h35.482v-23.117h-42.739v-16.666h42.739v-22.579h-42.739v-34.138z" />
<glyph unicode="&#xe955;" glyph-name="jixiao" d="M64 767.563v-767.123c0-35.641 28.849-64.438 64.438-64.438h767.123c35.641 0 64.438 28.849 64.438 64.438v767.123c0 35.641-28.849 64.438-64.438 64.438h-767.123c-35.641 0-64.438-28.849-64.438-64.438zM810.667 492.606c0-29.867-24.437-54.303-54.303-54.303-4.887 0-9.503 0.543-13.847 1.9l-96.66-96.388c1.358-4.345 1.9-9.232 1.9-14.119 0-29.867-24.437-54.303-54.303-54.303s-54.303 24.437-54.303 54.303c0 4.887 0.543 9.775 1.9 14.119l-69.237 69.237c-4.345-1.358-9.232-1.9-14.119-1.9s-9.775 0.543-14.119 1.9l-123.54-123.81c1.358-4.345 1.9-8.96 1.9-13.847 0-29.867-24.437-54.303-54.303-54.303s-54.303 24.437-54.303 54.303c0 29.867 24.437 54.303 54.303 54.303 4.887 0 9.503-0.543 13.847-1.9l123.81 123.54c-1.358 4.345-1.9 9.232-1.9 14.119 0 29.867 24.437 54.303 54.303 54.303s54.303-24.437 54.303-54.303c0-4.887-0.543-9.775-1.9-14.119l69.237-69.237c4.345 1.358 9.232 1.9 14.119 1.9s9.775-0.543 14.119-1.9l96.388 96.66c-1.358 4.345-1.9 8.96-1.9 13.847 0 29.867 24.437 54.303 54.303 54.303s54.303-24.437 54.303-54.303z" />
<glyph unicode="&#xe956;" glyph-name="shengrenli2" d="M895.936 255.872l64.064 64.064-64.064 64.064-159.936-159.936-383.936 383.936 159.936 159.936-64.064 64.064-64.064-64.064-64.064 64.064-95.872-95.872-64.064 64.064-64.064-64.064 64.064-64.064-95.872-95.872 64.064-64.064-64.064-64.064 64.064-64.064 159.936 159.936 383.936-383.936-159.936-159.936 64.064-64.064 64.064 64.064 64.064-64.064 95.872 95.872 64.064-64.064 64.064 64.064-64.064 64.064 95.872 95.872z" />
<glyph unicode="&#xe957;" glyph-name="zhaopin2" d="M857.6 643.2h-345.6l-86.4 86.4h-259.2c-47.52 0-85.968-38.88-85.968-86.4l-0.432-518.4c0-47.52 38.88-86.4 86.4-86.4h691.2c47.52 0 86.4 38.88 86.4 86.4v432c0 47.52-38.88 86.4-86.4 86.4v0zM382.4 513.6c47.52 0 86.4-38.88 86.4-86.4s-38.88-86.4-86.4-86.4c-47.52 0-86.4 38.88-86.4 86.4s38.88 86.4 86.4 86.4v0zM663.2 492v64.8h43.2v-64.8h64.8v-43.2h-64.8v-64.8h-43.2v64.8h-64.8v43.2h64.8zM555.2 168h-345.6v43.2c0 57.456 115.344 86.4 172.8 86.4s172.8-28.944 172.8-86.4v-43.2z" />
<glyph unicode="&#xe958;" glyph-name="huiyiguanli" d="M646.925 18.581h170.061v343.923h130.708l-435.692 386.915-435.692-386.915h130.708v-343.923h439.909zM526.054 496.438c46.662 0 84.327-37.667 84.327-84.327s-37.667-84.327-84.327-84.327c-46.662 0-84.327 37.667-84.327 84.327s37.667 84.327 84.327 84.327v0zM694.71 159.127h-337.31v39.353c0 56.219 112.437 87.138 168.656 87.138s168.656-30.919 168.656-87.138v-39.353z" />
<glyph unicode="&#xe959;" glyph-name="neibujili" d="M512 656.782c41.979 71.442 115.94 116.907 199.897 116.907 131.932 0 239.877-116.907 239.877-259.793 0-259.793-439.774-519.585-439.774-519.585s-439.774 261.958-439.774 519.585c0 142.887 107.945 259.793 239.877 259.793 83.957 0 157.919-45.464 199.897-116.907zM375.66 384h14.063l7.938 11.706 51.92 76.887 79.996-235.938 30.364 35.821 98.653 111.524h133.265c14.72 0 26.652 12.033 26.652 26.875s-11.933 26.875-26.652 26.875h-161.947l-7.98-9.414-71.989-85.589-84.255 248.5-100.277-153.498h-159.918c-14.72 0-26.652-12.033-26.652-26.875s11.933-26.875 26.652-26.875h170.169z" />
<glyph unicode="&#xe95a;" glyph-name="lizhidiaoyan" d="M885.030 710.4h-746.057c-51.29 0-92.791-41.966-92.791-93.257l-0.466-466.286c0-51.29 41.966-93.257 93.257-93.257h746.057c51.29 0 93.257 41.966 93.257 93.257v466.286c0 51.29-41.966 93.257-93.257 93.257zM558.63 197.486h-373.030v46.63c0 62.016 124.498 93.257 186.514 93.257s186.514-31.241 186.514-93.257v-46.63zM675.2 257.329l129.691 129.974-129.691 129.974 39.927 39.927 169.902-169.902-169.902-169.902-39.927 39.927zM372.114 570.514c51.29 0 93.257-41.966 93.257-93.257s-41.966-93.257-93.257-93.257c-51.29 0-93.257 41.966-93.257 93.257s41.966 93.257 93.257 93.257z" />
<glyph unicode="&#xe95b;" glyph-name="wenhuazhengduan" horiz-adv-x="960" d="M480 415.611c-102.898 95.921-240.678 154.783-392.409 154.783v-479.611c151.731 0 289.511-58.862 392.409-154.783 102.898 95.487 240.678 154.783 392.409 154.783v479.611c-151.731 0-289.511-58.862-392.409-154.783v0zM480 570.394c72.377 0 130.803 58.426 130.803 130.803s-58.426 130.803-130.803 130.803c-72.377 0-130.803-58.426-130.803-130.803s58.426-130.803 130.803-130.803v0z" />
<glyph unicode="&#xe95c;" glyph-name="touch" d="M80.743 684.88c0 15.216 16.081 27.551 35.962 27.551h790.589c19.862 0 35.962-12.648 35.962-27.551v-500.464c0-15.216-16.081-27.551-35.962-27.551h-790.589c-19.862 0-35.962 12.648-35.962 27.551v500.464zM367.443 479.129l184.193-172.911 237.57 219.91-51.274 45.805-186.295-173.481-184.193 173.304-132.492-121.159 50.965-46.087 81.527 74.621zM116.681 799.237c0 19.177 15.088 34.724 34.992 34.724h720.654c19.327 0 34.992-15.412 34.992-34.724 0-19.177-15.088-34.724-34.992-34.724h-720.654c-19.327 0-34.992 15.412-34.992 34.724zM285.846-52.305c-13.561 13.561-13.588 35.518-0.055 49.051l103.478 103.478c13.53 13.53 35.396 13.6 49.051-0.055 13.561-13.561 13.588-35.518 0.055-49.051l-103.478-103.478c-13.53-13.53-35.396-13.6-49.051 0.055zM725.823-52.305c13.561 13.561 13.588 35.518 0.055 49.051l-103.478 103.478c-13.53 13.53-35.396 13.6-49.051-0.055-13.561-13.561-13.588-35.518-0.055-49.051l103.478-103.478c13.53-13.53 35.396-13.6 49.051 0.055z" />
<glyph unicode="&#xe95d;" glyph-name="jianlijiexi" d="M594.424 631.273l-154.545-206.060 117.455-156.606-65.94-49.455c-69.649 92.727-185.455 247.273-185.455 247.273l-247.273-329.697h906.667l-370.909 494.545z" />
<glyph unicode="&#xe95e;" glyph-name="renshi" d="M701.742 383.999c58.188 0 104.99 47.787 104.99 106.666s-46.802 106.666-104.99 106.666c-58.188 0-105.412-47.787-105.412-106.666s47.224-106.666 105.412-106.666v0 0zM385.506 426.667c69.994 0 126.072 57.173 126.072 128.001s-56.079 128.001-126.072 128.001c-69.994 0-126.494-57.173-126.494-128.001s56.5-128.001 126.494-128.001v0 0zM701.742 298.666c-77.162 0-231.906-39.253-231.906-117.334v-95.999h463.812v95.999c0 78.079-154.744 117.334-231.906 117.334v0 0zM385.506 341.333c-98.244 0-295.154-49.919-295.154-149.333v-106.666h295.154v95.999c0 36.266 13.914 99.84 99.93 148.053-36.684 7.68-72.102 11.947-99.93 11.947v0 0z" />
<glyph unicode="&#xe95f;" glyph-name="shebao" d="M512-64c-247.424 0-448 200.576-448 448s200.576 448 448 448c247.424 0 448-200.576 448-448s-200.576-448-448-448zM447.999 64h128v64.001h64.001c35.201 0 64.001 28.8 64.001 64.001v192.001c0 35.201-28.8 64.001-64.001 64.001h-192.001v64.001h255.999v128h-128v64.001h-128v-64.001h-64.001c-35.201 0-64.001-28.8-64.001-64.001v-192.001c0-35.201 28.8-64.001 64.001-64.001h192.001v-64.001h-255.999v-128h128v-64.001z" />
<glyph unicode="&#xe960;" glyph-name="gonggao" d="M64 761.693c0 38.829 31.889 70.308 70.308 70.308h755.385c38.829 0 70.308-31.889 70.308-70.308v-755.385c0-38.829-31.889-70.308-70.308-70.308h-755.385c-38.829 0-70.308 31.889-70.308 70.308v755.385zM507.426 575.076c-102.34 0-185.112-82.472-185.112-184.443h52.888c0 72.723 59.236 131.746 132.223 131.746s132.223-59.021 132.223-131.746h52.888c0 101.97-82.772 184.443-185.112 184.443zM533.87 330.293c23.272 10.276 39.667 33.201 39.667 60.339 0 36.362-29.617 65.873-66.112 65.873s-66.112-29.511-66.112-65.873c0-26.875 16.396-50.063 39.667-60.339v-86.951l-90.176-89.85 37.287-37.152 79.333 79.047 79.333-79.047 37.287 37.152-90.176 89.85v86.951zM216.537 390.632h52.888c0 130.954 106.572 237.14 238 237.14s238-106.186 238-237.14h52.888c0 159.939-130.372 289.838-290.888 289.838s-290.888-129.9-290.888-289.838z" />
<glyph unicode="&#xe961;" glyph-name="exiting" d="M661.333 383.998c0-82.25-67.083-149.333-149.333-149.333s-149.333 67.083-149.333 149.333c0 82.25 67.083 149.333 149.333 149.333s149.333-67.083 149.333-149.333zM960 447.581c0 9.917-7 19.25-16.917 21l-106.75 16.333c-5.833 19.25-14 38.5-23.917 57.167 19.833 27.417 41.417 53.083 61.25 79.917 2.917 4.083 4.667 8.167 4.667 13.417 0 4.667-1.167 9.333-4.083 12.833-24.5 34.417-65.333 70.583-96.25 99.167-4.083 3.5-9.333 5.833-14.583 5.833s-10.5-1.75-14-5.25l-82.833-62.417c-16.917 8.75-34.417 15.75-52.5 21.583l-16.333 107.333c-1.167 9.917-10.5 17.5-21 17.5h-129.5c-10.5 0-18.667-7-21-16.333-9.333-35-12.833-72.917-16.917-108.5-18.083-5.833-36.167-13.417-53.083-22.167l-80.5 62.417c-4.667 3.5-9.917 5.833-15.167 5.833-19.833 0-98.583-85.167-112.583-104.417-2.917-4.083-5.25-8.167-5.25-13.417s2.333-9.917 5.833-14c21.583-26.25 42.583-52.5 62.417-80.5-9.333-17.5-16.917-35-22.75-53.667l-108.5-16.333c-8.75-1.75-15.75-12.25-15.75-21v-129.5c0-9.917 7-19.25 16.917-21l106.75-15.75c5.833-19.833 14-39.083 23.917-57.75-19.833-27.417-41.417-53.083-61.25-79.917-2.917-4.083-4.667-8.167-4.667-13.417 0-4.667 1.167-9.333 4.083-13.417 24.5-33.833 65.333-70 96.25-98 4.083-4.083 9.333-6.417 14.583-6.417s10.5 1.75 14.583 5.25l82.25 62.417c16.917-8.75 34.417-15.75 52.5-21.583l16.333-107.333c1.167-9.917 10.5-17.5 21-17.5h129.5c10.5 0 18.667 7 21 16.333 9.333 35 12.833 72.917 16.917 108.5 18.083 5.833 36.167 13.417 53.083 22.167l80.5-63c4.667-2.917 9.917-5.25 15.167-5.25 19.833 0 98.583 85.75 112.583 104.417 3.5 4.083 5.25 8.167 5.25 13.417s-2.333 10.5-5.833 14.583c-21.583 26.25-42.583 51.917-62.417 80.5 9.333 16.917 16.333 34.417 22.75 53.083l107.917 16.333c9.333 1.75 16.333 12.25 16.333 21v129.5z" />
<glyph unicode="&#xe962;" glyph-name="qudaofabu" d="M75.084 9.143l874.25 374.857-874.25 374.857-0.416-291.555 624.763-83.302-624.763-83.302 0.416-291.555z" />
<glyph unicode="&#xe963;" glyph-name="rencaijuzhen2" d="M960 732.444c0 54.756-44.8 99.556-99.556 99.556h-696.888c-54.756 0-99.556-44.8-99.556-99.556v-696.888c0-54.756 44.8-99.556 99.556-99.556h696.888c54.756 0 99.556 44.8 99.556 99.556v696.888zM860.444 35.556h-696.888v696.888h696.888v-696.888zM263.112 334.223h248.888v-199.112h-248.888v199.112zM561.777 632.888h199.112v-149.333h-199.112v149.333zM263.112 632.888h248.888v-248.888h-248.888v248.888zM561.777 433.777h199.112v-298.667h-199.112v298.667z" />
<glyph unicode="&#xe964;" glyph-name="FuJianXiaZai" horiz-adv-x="964" d="M482-65.874c248.328 0 449.869 201.541 449.869 449.869s-201.541 449.869-449.869 449.869c-248.328 0-449.869-201.541-449.869-449.869s201.541-449.869 449.869-449.869v0zM482 743.89c198.392 0 359.895-161.503 359.895-359.895s-161.503-359.895-359.895-359.895c-198.392 0-359.895 161.503-359.895 359.895s161.503 359.895 359.895 359.895v0zM314.453 484.747c2.395 7.029 8.144 11.715 14.368 11.715h91.966v149.956c0 10.544 6.706 18.744 15.327 18.744h91.966c8.622 0 15.327-8.199 15.327-18.744v-149.956h91.966c8.622 0 15.327-8.199 15.327-18.744 0-5.272-1.916-9.958-4.79-14.059l-152.797-186.86c-3.351-3.515-7.185-5.272-11.017-5.272s-7.664 1.757-11.017 5.272l-153.276 187.445c-4.311 5.858-5.748 13.472-3.351 20.502zM321.333 231.36h321.335v64.267c0 17.747 14.386 32.133 32.133 32.133s32.133-14.386 32.133-32.133v-96.401c0-17.747-14.386-32.133-32.133-32.133h-385.602c-17.747 0-32.133 14.386-32.133 32.133v96.401c0 17.747 14.386 32.133 32.133 32.133s32.133-14.386 32.133-32.133v-64.267z" />
<glyph unicode="&#xe965;" glyph-name="FuJianYuLan" horiz-adv-x="964" d="M482 833.863c-248.328 0-449.869-201.541-449.869-449.869s201.541-449.869 449.869-449.869c248.328 0 449.869 201.541 449.869 449.869s-201.541 449.869-449.869 449.869v0zM482 24.098c-198.392 0-359.895 161.503-359.895 359.895s161.503 359.895 359.895 359.895c198.392 0 359.895-161.503 359.895-359.895s-161.503-359.895-359.895-359.895v0zM144.599 383.992c53.056-131.656 184.041-224.934 337.394-224.934 153.368 0 284.337 93.278 337.408 224.934-53.072 131.672-184.041 224.934-337.408 224.934-153.352 0-284.337-93.263-337.394-224.934zM313.299 383.985c0 93.134 75.575 168.709 168.693 168.709 93.134 0 168.709-75.575 168.709-168.709 0-93.118-75.575-168.692-168.709-168.692-93.118 0-168.693 75.575-168.693 168.692zM482 496.461c-62.23 0-112.468-50.237-112.468-112.468s50.237-112.468 112.468-112.468c62.23 0 112.468 50.237 112.468 112.468s-50.237 112.468-112.468 112.468v0z" />
<glyph unicode="&#xe966;" glyph-name="TiShiTuBiao1" horiz-adv-x="991" d="M495.5 815.484c238.179 0 431.484-193.305 431.484-431.484s-193.305-431.484-431.484-431.484c-238.611 0-431.484 193.305-431.484 431.484s192.873 431.484 431.484 431.484zM495.5 10.047c206.608 0 373.953 167.343 373.953 373.953s-167.343 373.953-373.953 373.953c-206.608 0-373.953-167.343-373.953-373.953s167.343-373.953 373.953-373.953zM437.969 642.891h115.063v-345.187h-115.063v345.187zM437.969 240.173h115.063v-115.063h-115.063v115.063z" />
<glyph unicode="&#xe967;" glyph-name="TiShiTuBiao2" horiz-adv-x="1088" d="M540.992 757.458l-399.712-755.012c-9.348-17.658-9.732-17.015 9.74-17.015h785.993c19.442 0 19.075-0.616 9.74 17.015l-399.712 755.012c-1.035 1.954-2.050 3.691-3.023 5.214-0.974-1.523-1.989-3.26-3.024-5.214zM491.408 783.707c29.054 54.88 76.116 54.965 105.214 0l399.712-755.012c29.054-54.88 2.528-99.368-59.324-99.368h-785.993c-61.817 0-88.422 44.405-59.324 99.368l399.712 755.012zM487.912 546.459h112.206v-336.618h-112.206v336.618zM487.912 153.739h112.206v-112.206h-112.206v112.206z" />
<glyph unicode="&#xe968;" glyph-name="KT-BaoBiaoGuanLi" d="M892.775 89.428v549.234c0 31.603-12.738 60.208-32.597 81.276-20.866 20.384-48.686 33.144-79.607 33.144h-9.302v-73.054c0-19.527-15.502-35.542-34.357-35.542-19.189 0-35.111 16.015-35.111 35.542v73.054h-379.769v-73.054c0-19.527-15.753-35.542-34.859-35.542-18.938 0-34.44 16.015-34.44 35.542v73.054h-9.553c-30.67 0-58.909-12.761-78.769-33.144-20.866-21.068-33.184-49.673-33.184-81.276v-549.234c0-31.346 12.319-60.208 33.184-80.505 19.86-20.811 48.099-33.915 78.769-33.915h537.392c30.921 0 58.742 13.103 79.607 33.915 19.86 20.297 32.597 49.16 32.597 80.505zM908.78 769.697c32.848-33.658 53.211-79.82 53.211-131.035v-549.234c0-50.444-20.363-97.377-53.211-131.206-32.429-32.887-78.099-54.213-128.21-54.213h-537.392c-49.859 0-95.194 21.325-128.126 54.213-32.681 33.829-53.044 80.762-53.044 131.206v549.234c0 51.215 20.363 97.377 53.044 131.035 32.933 33.058 78.267 54.383 128.126 54.383h9.553v4.539c0 19.527 15.502 35.371 34.44 35.371 19.106 0 34.859-15.844 34.859-35.371v-4.539h379.769v4.539c0 19.527 15.921 35.371 35.111 35.371 18.855 0 34.357-15.844 34.357-35.371v-4.539h9.302c50.111 0 95.277-21.325 128.21-54.383zM352.433 613.337c-16.676-17.043-39.804-27.834-65.278-27.834-25.306 0-48.351 10.791-64.775 27.834-16.759 17.043-27.318 40.681-27.318 66.717 0 11.562 9.553 21.325 20.866 21.325 11.815 0 20.866-9.763 20.866-21.325 0-14.302 5.447-27.32 15-36.57 8.799-9.335 21.368-15.331 35.363-15.331s26.731 5.995 35.782 15.331c9.134 9.249 14.748 22.267 14.748 36.57 0 11.562 9.302 21.325 21.117 21.325 11.313 0 20.446-9.763 20.446-21.325 0-26.036-10.14-49.673-26.815-66.717zM807.854 701.422c11.564 0 20.866-9.763 20.866-21.325 0-26.121-10.307-49.673-26.983-66.717-16.927-17.129-39.804-27.92-64.859-27.92-25.474 0-48.603 10.791-65.278 27.92-16.927 17.043-27.234 40.595-27.234 66.717 0 11.562 9.553 21.325 20.866 21.325 11.732 0 20.866-9.763 20.866-21.325 0-14.302 5.615-27.406 14.916-36.656 8.883-9.249 21.62-15.331 35.865-15.331 13.491 0 26.312 6.081 35.363 15.331 9.385 9.249 15.251 22.353 15.251 36.656 0 11.562 8.798 21.325 20.363 21.325zM759.487 251.013h-494.404c-11.815 0-21.368-9.249-21.368-21.325 0-11.562 9.553-20.811 21.368-20.811h494.404c11.313 0 20.614 9.249 20.614 20.811 0 12.076-9.302 21.325-20.614 21.325zM759.487 138.116h-494.404c-11.815 0-21.368-9.764-21.368-21.84 0-11.048 9.553-20.811 21.368-20.811h494.404c11.313 0 20.614 9.764 20.614 20.811 0 12.076-9.302 21.84-20.614 21.84zM759.487 364.678h-494.404c-11.815 0-21.368-9.763-21.368-21.583s9.553-21.068 21.368-21.068h494.404c11.313 0 20.614 9.249 20.614 21.068s-9.302 21.583-20.614 21.583zM759.487 477.6h-494.404c-11.815 0-21.368-9.335-21.368-21.325 0-11.562 9.553-21.325 21.368-21.325h494.404c11.313 0 20.614 9.763 20.614 21.325 0 11.99-9.302 21.325-20.614 21.325z" />
<glyph unicode="&#xe969;" glyph-name="KT-CaoZuo" d="M831.723 511.892c-35.301 0-63.946-28.641-63.946-63.946v-127.892c0-35.301 28.641-63.946 63.946-63.946h127.892c35.301 0 63.946 28.641 63.946 63.946v127.892c0 35.301-28.641 63.946-63.946 63.946h-127.892zM448.053 511.892c-35.301 0-63.946-28.641-63.946-63.946v-127.892c0-35.301 28.641-63.946 63.946-63.946h127.892c35.301 0 63.946 28.641 63.946 63.946v127.892c0 35.301-28.641 63.946-63.946 63.946h-127.892zM64.386 511.892c-35.301 0-63.946-28.641-63.946-63.946v-127.892c0-35.301 28.641-63.946 63.946-63.946h127.892c35.301 0 63.946 28.641 63.946 63.946v127.892c0 35.301-28.641 63.946-63.946 63.946h-127.892z" />
<glyph unicode="&#xe96a;" glyph-name="KT-Close" d="M456.002 384l-391.984-391.984 55.998-55.998 391.984 391.984 391.984-391.984 55.998 55.998-391.984 391.984 391.984 391.984-55.998 55.998-391.984-391.984-391.984 391.984-55.998-55.998 391.984-391.984z" />
</font>
</defs>
</svg>
